<?xml version="1.0" encoding="utf-8"?>
<!-- Generator: Adobe Illustrator 22.1.0, SVG Export Plug-In . SVG Version: 6.00 Build 0)  -->
<svg version="1.1" id="_x34_57bf273-24a3-4fd8-a857-e9b918267d6a"
	 xmlns="http://www.w3.org/2000/svg" xmlns:xlink="http://www.w3.org/1999/xlink" x="0px" y="0px" viewBox="0 0 698 698"
	 style="enable-background:new 0 0 698 698;" xml:space="preserve">
<style type="text/css">
	.st0{opacity:0.5;}
	.st1{fill:url(#SVGID_1_);}
	.st2{fill:#F5F5F5;}
	.st3{fill:none;}
	.st4{fill:#00B050;}
	.st5{fill:#009BDA;}
	.st6{fill:#FDC32B;}
	.st7{opacity:0.25;}
	.st8{fill:#2A507A;}
	.st9{fill:none;stroke:#2A507A;stroke-width:1.3019;stroke-miterlimit:10;}
	.st10{fill:none;stroke:#2A507A;stroke-width:5.4139;stroke-linecap:round;stroke-miterlimit:10;}
	.st11{fill:none;stroke:#2A507A;stroke-linecap:round;stroke-miterlimit:10;}
	.st12{fill:none;stroke:#2A507A;stroke-linecap:round;stroke-linejoin:round;stroke-miterlimit:10;}
	.st13{fill:#FFFFFF;}
	.st14{fill:#ACE2F9;}
	.st15{fill:none;stroke:#ACE2F9;stroke-width:1.3019;stroke-miterlimit:10;}
	.st16{fill:#BDE7FF;}
	.st17{fill:none;stroke:#FDC32B;stroke-width:5.4139;stroke-linecap:round;stroke-miterlimit:10;}
	.st18{fill:none;stroke:#00B050;stroke-linecap:round;stroke-miterlimit:10;}
	.st19{fill:none;stroke:#FDC32B;stroke-linecap:round;stroke-miterlimit:10;}
	.st20{fill:none;stroke:#009BDA;stroke-linecap:round;stroke-linejoin:round;stroke-miterlimit:10;}
</style>
<title>profile pic</title>
<g class="st0">
	
		<linearGradient id="SVGID_1_" gradientUnits="userSpaceOnUse" x1="349" y1="-9.094947e-13" x2="349" y2="698" gradientTransform="matrix(1 0 0 -1 0 698)">
		<stop  offset="0" style="stop-color:#808080;stop-opacity:0.25"/>
		<stop  offset="0.54" style="stop-color:#808080;stop-opacity:0.12"/>
		<stop  offset="1" style="stop-color:#808080;stop-opacity:0.1"/>
	</linearGradient>
	<circle class="st1" cx="349" cy="349" r="349"/>
</g>
<circle class="st2" cx="349.7" cy="346.8" r="341.6"/>
<g>
	<path class="st3" d="M401.4,248.3c-8.2,0-16.3-0.2-24.3-0.7v268.9c0,0,0,0,0,0v0.9c7.8,0.7,16,1,24.3,1c26.7,0,54.3-3.6,82.1-10.6
		c22.5-5.7,44.3-13.5,64.2-23V223.5c-11.9,4-24.2,7.7-36.7,10.8C474.3,243.6,437.4,248.3,401.4,248.3z"/>
	<path class="st3" d="M296.6,179.4c-26.7,0-54.3,3.6-82.1,10.6c-22.5,5.7-44.3,13.5-64.2,23v261.4c11.9-4.1,24.2-7.7,36.7-10.8
		c36.8-9.3,73.7-14,109.6-14c8.2,0,16.3,0.2,24.3,0.7V181.4c0,0,0,0,0,0v-0.9C313,179.8,304.9,179.4,296.6,179.4z"/>
	<path class="st4" d="M320.8,450.3c-8-0.5-16.1-0.7-24.3-0.7c-36,0-72.8,4.7-109.6,14c-12.5,3.2-24.7,6.8-36.7,10.8V213
		c19.9-9.5,41.6-17.3,64.2-23c27.8-7,55.5-10.6,82.1-10.6c8.4,0,16.5,0.3,24.3,1v0.9c8.9,2.6,18.3,4.7,28.1,6.4
		c9.1,1.5,18.5,2.7,28.1,3.4v-57.4c-24-6.9-51.3-10.6-80.6-10.6c-30.4,0-62.8,3.9-95.9,12.3c-40,10.1-76.3,25.4-106.7,44.1v382.7
		c30.4-18.7,66.7-34,106.7-44.1c33-8.3,65.5-12.3,95.9-12.3c8.3,0,16.4,0.3,24.3,0.9V450.3z"/>
	<path class="st5" d="M497.3,179.7c-33,8.3-65.5,12.3-95.9,12.3c-8.3,0-16.4-0.3-24.3-0.9c-9.7-0.7-19.1-1.8-28.1-3.4
		c-9.8-1.7-19.2-3.8-28.1-6.4c0,0,0,0,0,0v268.9v56.4v57.4c24,6.9,51.3,10.6,80.6,10.6c30.4,0,62.8-3.9,95.9-12.3
		c40-10.1,76.2-25.4,106.7-44.1V135.6C573.6,154.3,537.3,169.6,497.3,179.7z M547.7,484.9c-19.9,9.5-41.6,17.3-64.2,23
		c-27.8,7-55.4,10.6-82.1,10.6c-8.4,0-16.5-0.3-24.3-1v-0.9c0,0,0,0,0,0V247.5c8,0.5,16.1,0.7,24.3,0.7c35.9,0,72.8-4.7,109.6-14
		c12.5-3.2,24.7-6.8,36.7-10.8V484.9z"/>
	<path class="st6" d="M319.6,181c0,0,50.4,10.8,57.8,10.8c0.3,127.7,0.6,255.3,0.9,383c-9-0.4-19.4-1.5-30.7-3.6
		c-10.5-2-19.9-4.6-28-7.2C319.6,436.3,319.6,308.7,319.6,181z"/>
	<g>
		<g>
			<g class="st7">
				<path class="st8" d="M309.6,280.8v104.9c0,4.5-3.7,8.2-8.2,8.2H173.2c-4.5,0-8.2-3.7-8.2-8.2V280.8c0-4.6,3.7-8.2,8.2-8.2h128.2
					C305.9,272.5,309.6,276.2,309.6,280.8z"/>
				<path class="st8" d="M309.6,280.8v14.7H164.9v-14.7c0-4.6,3.7-8.2,8.2-8.2h128.2C305.9,272.5,309.6,276.2,309.6,280.8z"/>
				<path class="st8" d="M185.9,318.4h-14c-0.7,0-1.3-0.6-1.3-1.3v-14c0-0.7,0.6-1.3,1.3-1.3h14c0.7,0,1.3,0.6,1.3,1.3v14
					C187.2,317.8,186.6,318.4,185.9,318.4z"/>
				<path class="st8" d="M209.4,318.4h-14c-0.7,0-1.3-0.6-1.3-1.3v-14c0-0.7,0.6-1.3,1.3-1.3h14c0.7,0,1.3,0.6,1.3,1.3v14
					C210.7,317.8,210.1,318.4,209.4,318.4z"/>
				<path class="st8" d="M232.9,318.4h-14c-0.7,0-1.3-0.6-1.3-1.3v-14c0-0.7,0.6-1.3,1.3-1.3h14c0.7,0,1.3,0.6,1.3,1.3v14
					C234.1,317.8,233.6,318.4,232.9,318.4z"/>
				<path class="st8" d="M256.4,318.4h-14c-0.7,0-1.3-0.6-1.3-1.3v-14c0-0.7,0.6-1.3,1.3-1.3h14c0.7,0,1.3,0.6,1.3,1.3v14
					C257.6,317.8,257.1,318.4,256.4,318.4z"/>
				<path class="st9" d="M279.9,318.4h-14c-0.7,0-1.3-0.6-1.3-1.3v-14c0-0.7,0.6-1.3,1.3-1.3h14c0.7,0,1.3,0.6,1.3,1.3v14
					C281.1,317.8,280.6,318.4,279.9,318.4z"/>
				<path class="st8" d="M303.4,318.4h-14c-0.7,0-1.3-0.6-1.3-1.3v-14c0-0.7,0.6-1.3,1.3-1.3h14c0.7,0,1.3,0.6,1.3,1.3v14
					C304.6,317.8,304,318.4,303.4,318.4z"/>
				<path class="st8" d="M185.9,340.5h-14c-0.7,0-1.3-0.6-1.3-1.3v-14c0-0.7,0.6-1.3,1.3-1.3h14c0.7,0,1.3,0.6,1.3,1.3v14
					C187.2,340,186.6,340.5,185.9,340.5z"/>
				<path class="st8" d="M209.4,340.5h-14c-0.7,0-1.3-0.6-1.3-1.3v-14c0-0.7,0.6-1.3,1.3-1.3h14c0.7,0,1.3,0.6,1.3,1.3v14
					C210.7,340,210.1,340.5,209.4,340.5z"/>
				<path class="st9" d="M232.9,340.5h-14c-0.7,0-1.3-0.6-1.3-1.3v-14c0-0.7,0.6-1.3,1.3-1.3h14c0.7,0,1.3,0.6,1.3,1.3v14
					C234.1,340,233.6,340.5,232.9,340.5z"/>
				<path class="st8" d="M256.4,340.5h-14c-0.7,0-1.3-0.6-1.3-1.3v-14c0-0.7,0.6-1.3,1.3-1.3h14c0.7,0,1.3,0.6,1.3,1.3v14
					C257.6,340,257.1,340.5,256.4,340.5z"/>
				<path class="st8" d="M279.9,340.5h-14c-0.7,0-1.3-0.6-1.3-1.3v-14c0-0.7,0.6-1.3,1.3-1.3h14c0.7,0,1.3,0.6,1.3,1.3v14
					C281.1,340,280.6,340.5,279.9,340.5z"/>
				<path class="st8" d="M303.4,340.5h-14c-0.7,0-1.3-0.6-1.3-1.3v-14c0-0.7,0.6-1.3,1.3-1.3h14c0.7,0,1.3,0.6,1.3,1.3v14
					C304.6,340,304,340.5,303.4,340.5z"/>
				<path class="st8" d="M185.9,362.6h-14c-0.7,0-1.3-0.6-1.3-1.3v-14c0-0.7,0.6-1.3,1.3-1.3h14c0.7,0,1.3,0.6,1.3,1.3v14
					C187.2,362.1,186.6,362.6,185.9,362.6z"/>
				<path class="st8" d="M209.4,362.6h-14c-0.7,0-1.3-0.6-1.3-1.3v-14c0-0.7,0.6-1.3,1.3-1.3h14c0.7,0,1.3,0.6,1.3,1.3v14
					C210.7,362.1,210.1,362.6,209.4,362.6z"/>
				<path class="st8" d="M232.9,362.6h-14c-0.7,0-1.3-0.6-1.3-1.3v-14c0-0.7,0.6-1.3,1.3-1.3h14c0.7,0,1.3,0.6,1.3,1.3v14
					C234.1,362.1,233.6,362.6,232.9,362.6z"/>
				<path class="st8" d="M256.4,362.6h-14c-0.7,0-1.3-0.6-1.3-1.3v-14c0-0.7,0.6-1.3,1.3-1.3h14c0.7,0,1.3,0.6,1.3,1.3v14
					C257.6,362.1,257.1,362.6,256.4,362.6z"/>
				<path class="st8" d="M279.9,362.6h-14c-0.7,0-1.3-0.6-1.3-1.3v-14c0-0.7,0.6-1.3,1.3-1.3h14c0.7,0,1.3,0.6,1.3,1.3v14
					C281.1,362.1,280.6,362.6,279.9,362.6z"/>
				<path class="st8" d="M303.4,362.6h-14c-0.7,0-1.3-0.6-1.3-1.3v-14c0-0.7,0.6-1.3,1.3-1.3h14c0.7,0,1.3,0.6,1.3,1.3v14
					C304.6,362.1,304,362.6,303.4,362.6z"/>
				<path class="st9" d="M185.9,384.8h-14c-0.7,0-1.3-0.6-1.3-1.3v-14c0-0.7,0.6-1.3,1.3-1.3h14c0.7,0,1.3,0.6,1.3,1.3v14
					C187.2,384.2,186.6,384.8,185.9,384.8z"/>
				<path class="st8" d="M209.4,384.8h-14c-0.7,0-1.3-0.6-1.3-1.3v-14c0-0.7,0.6-1.3,1.3-1.3h14c0.7,0,1.3,0.6,1.3,1.3v14
					C210.7,384.2,210.1,384.8,209.4,384.8z"/>
				<path class="st8" d="M232.9,384.8h-14c-0.7,0-1.3-0.6-1.3-1.3v-14c0-0.7,0.6-1.3,1.3-1.3h14c0.7,0,1.3,0.6,1.3,1.3v14
					C234.1,384.2,233.6,384.8,232.9,384.8z"/>
				<path class="st8" d="M256.4,384.8h-14c-0.7,0-1.3-0.6-1.3-1.3v-14c0-0.7,0.6-1.3,1.3-1.3h14c0.7,0,1.3,0.6,1.3,1.3v14
					C257.6,384.2,257.1,384.8,256.4,384.8z"/>
				<path class="st8" d="M279.9,384.8h-14c-0.7,0-1.3-0.6-1.3-1.3v-14c0-0.7,0.6-1.3,1.3-1.3h14c0.7,0,1.3,0.6,1.3,1.3v14
					C281.1,384.2,280.6,384.8,279.9,384.8z"/>
				<path class="st8" d="M303.4,384.8h-14c-0.7,0-1.3-0.6-1.3-1.3v-14c0-0.7,0.6-1.3,1.3-1.3h14c0.7,0,1.3,0.6,1.3,1.3v14
					C304.6,384.2,304,384.8,303.4,384.8z"/>
				<path class="st8" d="M176.7,285.3c0,1.7-1.3,3-3,3c-1.7,0-3-1.3-3-3c0-1.7,1.3-3,3-3C175.3,282.3,176.7,283.6,176.7,285.3z"/>
				<circle class="st8" cx="199.2" cy="285.3" r="3"/>
				<circle class="st8" cx="224.7" cy="285.3" r="3"/>
				<path class="st8" d="M253.2,285.3c0,1.7-1.3,3-3,3c-1.7,0-3-1.3-3-3c0-1.7,1.3-3,3-3C251.9,282.3,253.2,283.6,253.2,285.3z"/>
				<path class="st8" d="M278.8,285.3c0,1.7-1.3,3-3,3c-1.7,0-3-1.3-3-3c0-1.7,1.3-3,3-3C277.4,282.3,278.8,283.6,278.8,285.3z"/>
				<path class="st8" d="M304.3,285.3c0,1.7-1.3,3-3,3c-1.7,0-3-1.3-3-3c0-1.7,1.3-3,3-3C303,282.3,304.3,283.6,304.3,285.3z"/>
				<line class="st10" x1="173.7" y1="285.3" x2="173.7" y2="271.2"/>
				<line class="st10" x1="199.2" y1="285.3" x2="199.2" y2="271.2"/>
				<line class="st10" x1="224.7" y1="285.3" x2="224.7" y2="271.2"/>
				<line class="st10" x1="275.8" y1="285.3" x2="275.8" y2="271.2"/>
				<line class="st10" x1="301.3" y1="285.3" x2="301.3" y2="271.2"/>
				<path id="XMLID_380_" class="st8" d="M225.9,362.6"/>
				<path id="XMLID_362_" class="st8" d="M230.6,350c-0.5,0.2-1,0.3-1.5,0.4c0.3,1.2,0.5,2.5,0.6,3.7h2.7
					C232.3,352.5,231.7,351.1,230.6,350z M228.4,348.4c0.2,0.4,0.4,0.9,0.5,1.4c0.4-0.1,0.8-0.2,1.1-0.3
					C229.6,349.1,229.1,348.7,228.4,348.4z M227.6,348.2c-0.5-0.1-0.9-0.2-1.4-0.2v2.2c0.7,0,1.5-0.1,2.2-0.2
					C228.2,349.3,227.9,348.7,227.6,348.2z M228.6,350.5c-0.8,0.1-1.6,0.2-2.4,0.2v3.3h2.9C229.1,352.9,228.9,351.7,228.6,350.5z
					 M225.9,347.9c-0.1,0-0.2,0-0.3,0h0.6C226.1,347.9,226,347.9,225.9,347.9z M224.2,348.2c-0.3,0.6-0.6,1.2-0.8,1.8
					c0.7,0.1,1.4,0.2,2.2,0.2v-2.2C225.1,348,224.6,348,224.2,348.2z M221.7,349.5c0.4,0.1,0.8,0.2,1.1,0.3c0.2-0.5,0.3-0.9,0.5-1.4
					C222.7,348.7,222.2,349.1,221.7,349.5z M223.2,350.5c-0.3,1.2-0.5,2.4-0.5,3.6h2.9v-3.3C224.8,350.8,224,350.7,223.2,350.5z
					 M221.2,350c-1,1.1-1.7,2.5-1.8,4.1h2.7c0-1.2,0.2-2.5,0.6-3.7C222.1,350.3,221.7,350.1,221.2,350z M226.2,354.7v3.3
					c0.8,0,1.6,0.1,2.4,0.2c0.3-1.2,0.5-2.4,0.6-3.6H226.2z M229.7,354.7c0,1.3-0.2,2.5-0.6,3.7c0.5,0.1,1,0.3,1.5,0.4
					c1-1.1,1.7-2.5,1.8-4.1H229.7z M222.8,359c-0.4,0.1-0.8,0.2-1.2,0.3c0.5,0.4,1.1,0.8,1.7,1.1C223.2,359.9,223,359.5,222.8,359z
					 M229,359c-0.2,0.5-0.3,0.9-0.6,1.4c0.6-0.3,1.2-0.6,1.7-1.1C229.8,359.2,229.4,359.1,229,359z M226.2,358.7v2.2
					c0.5,0,0.9-0.1,1.4-0.2c0.3-0.6,0.6-1.2,0.8-1.8C227.7,358.7,226.9,358.7,226.2,358.7z M223.4,358.9c0.2,0.6,0.5,1.2,0.8,1.8
					c0.4,0.1,0.9,0.2,1.4,0.2v-2.2C224.9,358.7,224.2,358.7,223.4,358.9z M222.1,354.7h-2.7c0.1,1.6,0.7,3.1,1.8,4.1
					c0.5-0.2,1-0.3,1.5-0.4C222.3,357.2,222.1,356,222.1,354.7z M222.7,354.7c0,1.2,0.2,2.4,0.6,3.6c0.8-0.1,1.6-0.2,2.4-0.2v-3.3
					H222.7z"/>
				<path id="XMLID_361_" class="st8" d="M225.6,360.9c0.1,0,0.2,0,0.3,0c0.1,0,0.2,0,0.3,0"/>
				<path id="XMLID_360_" class="st8" d="M225.9,346.2"/>
				<polyline class="st11" points="174.1,311.3 178.1,314.6 183.8,306.7 				"/>
				<polyline class="st11" points="268.5,311.3 272.5,314.6 278.2,306.7 				"/>
				<polyline class="st12" points="197.6,376.7 201.5,380 207.3,372 				"/>
			</g>
			<g>
				<g>
					<g>
						<g>
							<path class="st13" d="M304.4,275.5v104.9c0,4.5-3.7,8.2-8.2,8.2H168c-4.5,0-8.2-3.7-8.2-8.2V275.5c0-4.6,3.7-8.2,8.2-8.2
								h128.2C300.7,267.3,304.4,271,304.4,275.5z"/>
						</g>
						<path class="st4" d="M304.4,275.5v14.7H159.7v-14.7c0-4.6,3.7-8.2,8.2-8.2h128.2C300.7,267.3,304.4,271,304.4,275.5z"/>
					</g>
					<g>
						<g>
							<path class="st14" d="M180.7,313.2h-14c-0.7,0-1.3-0.6-1.3-1.3v-14c0-0.7,0.6-1.3,1.3-1.3h14c0.7,0,1.3,0.6,1.3,1.3v14
								C182,312.6,181.4,313.2,180.7,313.2z"/>
							<path class="st14" d="M204.2,313.2h-14c-0.7,0-1.3-0.6-1.3-1.3v-14c0-0.7,0.6-1.3,1.3-1.3h14c0.7,0,1.3,0.6,1.3,1.3v14
								C205.5,312.6,204.9,313.2,204.2,313.2z"/>
							<path class="st14" d="M227.7,313.2h-14c-0.7,0-1.3-0.6-1.3-1.3v-14c0-0.7,0.6-1.3,1.3-1.3h14c0.7,0,1.3,0.6,1.3,1.3v14
								C228.9,312.6,228.4,313.2,227.7,313.2z"/>
							<path class="st14" d="M251.2,313.2h-14c-0.7,0-1.3-0.6-1.3-1.3v-14c0-0.7,0.6-1.3,1.3-1.3h14c0.7,0,1.3,0.6,1.3,1.3v14
								C252.4,312.6,251.9,313.2,251.2,313.2z"/>
							<path class="st15" d="M274.7,313.2h-14c-0.7,0-1.3-0.6-1.3-1.3v-14c0-0.7,0.6-1.3,1.3-1.3h14c0.7,0,1.3,0.6,1.3,1.3v14
								C275.9,312.6,275.4,313.2,274.7,313.2z"/>
							<path class="st14" d="M298.1,313.2h-14c-0.7,0-1.3-0.6-1.3-1.3v-14c0-0.7,0.6-1.3,1.3-1.3h14c0.7,0,1.3,0.6,1.3,1.3v14
								C299.4,312.6,298.8,313.2,298.1,313.2z"/>
						</g>
						<g>
							<path class="st14" d="M180.7,335.3h-14c-0.7,0-1.3-0.6-1.3-1.3v-14c0-0.7,0.6-1.3,1.3-1.3h14c0.7,0,1.3,0.6,1.3,1.3v14
								C182,334.8,181.4,335.3,180.7,335.3z"/>
							<path class="st14" d="M204.2,335.3h-14c-0.7,0-1.3-0.6-1.3-1.3v-14c0-0.7,0.6-1.3,1.3-1.3h14c0.7,0,1.3,0.6,1.3,1.3v14
								C205.5,334.8,204.9,335.3,204.2,335.3z"/>
							<path class="st15" d="M227.7,335.3h-14c-0.7,0-1.3-0.6-1.3-1.3v-14c0-0.7,0.6-1.3,1.3-1.3h14c0.7,0,1.3,0.6,1.3,1.3v14
								C228.9,334.8,228.4,335.3,227.7,335.3z"/>
							<path class="st14" d="M251.2,335.3h-14c-0.7,0-1.3-0.6-1.3-1.3v-14c0-0.7,0.6-1.3,1.3-1.3h14c0.7,0,1.3,0.6,1.3,1.3v14
								C252.4,334.8,251.9,335.3,251.2,335.3z"/>
							<path class="st14" d="M274.7,335.3h-14c-0.7,0-1.3-0.6-1.3-1.3v-14c0-0.7,0.6-1.3,1.3-1.3h14c0.7,0,1.3,0.6,1.3,1.3v14
								C275.9,334.8,275.4,335.3,274.7,335.3z"/>
							<path class="st14" d="M298.1,335.3h-14c-0.7,0-1.3-0.6-1.3-1.3v-14c0-0.7,0.6-1.3,1.3-1.3h14c0.7,0,1.3,0.6,1.3,1.3v14
								C299.4,334.8,298.8,335.3,298.1,335.3z"/>
						</g>
						<g>
							<path class="st14" d="M180.7,357.4h-14c-0.7,0-1.3-0.6-1.3-1.3v-14c0-0.7,0.6-1.3,1.3-1.3h14c0.7,0,1.3,0.6,1.3,1.3v14
								C182,356.9,181.4,357.4,180.7,357.4z"/>
							<path class="st14" d="M204.2,357.4h-14c-0.7,0-1.3-0.6-1.3-1.3v-14c0-0.7,0.6-1.3,1.3-1.3h14c0.7,0,1.3,0.6,1.3,1.3v14
								C205.5,356.9,204.9,357.4,204.2,357.4z"/>
							<path class="st14" d="M227.7,357.4h-14c-0.7,0-1.3-0.6-1.3-1.3v-14c0-0.7,0.6-1.3,1.3-1.3h14c0.7,0,1.3,0.6,1.3,1.3v14
								C228.9,356.9,228.4,357.4,227.7,357.4z"/>
							<path class="st14" d="M251.2,357.4h-14c-0.7,0-1.3-0.6-1.3-1.3v-14c0-0.7,0.6-1.3,1.3-1.3h14c0.7,0,1.3,0.6,1.3,1.3v14
								C252.4,356.9,251.9,357.4,251.2,357.4z"/>
							<path class="st14" d="M274.7,357.4h-14c-0.7,0-1.3-0.6-1.3-1.3v-14c0-0.7,0.6-1.3,1.3-1.3h14c0.7,0,1.3,0.6,1.3,1.3v14
								C275.9,356.9,275.4,357.4,274.7,357.4z"/>
							<path class="st14" d="M298.1,357.4h-14c-0.7,0-1.3-0.6-1.3-1.3v-14c0-0.7,0.6-1.3,1.3-1.3h14c0.7,0,1.3,0.6,1.3,1.3v14
								C299.4,356.9,298.8,357.4,298.1,357.4z"/>
						</g>
						<g>
							<path class="st15" d="M180.7,379.6h-14c-0.7,0-1.3-0.6-1.3-1.3v-14c0-0.7,0.6-1.3,1.3-1.3h14c0.7,0,1.3,0.6,1.3,1.3v14
								C182,379,181.4,379.6,180.7,379.6z"/>
							<path class="st14" d="M204.2,379.6h-14c-0.7,0-1.3-0.6-1.3-1.3v-14c0-0.7,0.6-1.3,1.3-1.3h14c0.7,0,1.3,0.6,1.3,1.3v14
								C205.5,379,204.9,379.6,204.2,379.6z"/>
							<path class="st14" d="M227.7,379.6h-14c-0.7,0-1.3-0.6-1.3-1.3v-14c0-0.7,0.6-1.3,1.3-1.3h14c0.7,0,1.3,0.6,1.3,1.3v14
								C228.9,379,228.4,379.6,227.7,379.6z"/>
							<path class="st14" d="M251.2,379.6h-14c-0.7,0-1.3-0.6-1.3-1.3v-14c0-0.7,0.6-1.3,1.3-1.3h14c0.7,0,1.3,0.6,1.3,1.3v14
								C252.4,379,251.9,379.6,251.2,379.6z"/>
							<path class="st14" d="M274.7,379.6h-14c-0.7,0-1.3-0.6-1.3-1.3v-14c0-0.7,0.6-1.3,1.3-1.3h14c0.7,0,1.3,0.6,1.3,1.3v14
								C275.9,379,275.4,379.6,274.7,379.6z"/>
							<path class="st14" d="M298.1,379.6h-14c-0.7,0-1.3-0.6-1.3-1.3v-14c0-0.7,0.6-1.3,1.3-1.3h14c0.7,0,1.3,0.6,1.3,1.3v14
								C299.4,379,298.8,379.6,298.1,379.6z"/>
						</g>
					</g>
					<g>
						<path class="st16" d="M171.4,280.1c0,1.7-1.3,3-3,3c-1.7,0-3-1.3-3-3c0-1.7,1.3-3,3-3C170.1,277.1,171.4,278.4,171.4,280.1z"
							/>
						<circle class="st16" cx="194" cy="280.1" r="3"/>
						<circle class="st16" cx="219.5" cy="280.1" r="3"/>
						<path class="st16" d="M248,280.1c0,1.7-1.3,3-3,3c-1.7,0-3-1.3-3-3c0-1.7,1.3-3,3-3C246.7,277.1,248,278.4,248,280.1z"/>
						<path class="st16" d="M273.6,280.1c0,1.7-1.3,3-3,3c-1.7,0-3-1.3-3-3c0-1.7,1.3-3,3-3C272.2,277.1,273.6,278.4,273.6,280.1z"
							/>
						<path class="st16" d="M299.1,280.1c0,1.7-1.3,3-3,3c-1.7,0-3-1.3-3-3c0-1.7,1.3-3,3-3C297.8,277.1,299.1,278.4,299.1,280.1z"
							/>
					</g>
					<g>
						<line class="st17" x1="168.4" y1="280.1" x2="168.4" y2="266"/>
					</g>
					<g>
						<line class="st17" x1="194" y1="280.1" x2="194" y2="266"/>
					</g>
					<g>
						<line class="st17" x1="219.5" y1="280.1" x2="219.5" y2="266"/>
					</g>
					<g>
						<line class="st17" x1="270.6" y1="280.1" x2="270.6" y2="266"/>
					</g>
					<g>
						<line class="st17" x1="296.1" y1="280.1" x2="296.1" y2="266"/>
					</g>
					<g id="XMLID_289_">
						<path id="XMLID_313_" class="st13" d="M220.7,357.4"/>
						<g id="XMLID_290_">
							<path id="XMLID_295_" class="st13" d="M225.4,344.8c-0.5,0.2-1,0.3-1.5,0.4c0.3,1.2,0.5,2.5,0.6,3.7h2.7
								C227.1,347.3,226.4,345.9,225.4,344.8z M223.2,343.2c0.2,0.4,0.4,0.9,0.5,1.4c0.4-0.1,0.8-0.2,1.1-0.3
								C224.4,343.9,223.9,343.5,223.2,343.2z M222.4,342.9c-0.5-0.1-0.9-0.2-1.4-0.2v2.2c0.7,0,1.5-0.1,2.2-0.2
								C223,344.1,222.7,343.5,222.4,342.9z M223.4,345.3c-0.8,0.1-1.6,0.2-2.4,0.2v3.3h2.9C223.9,347.7,223.7,346.5,223.4,345.3z
								 M220.7,342.7c-0.1,0-0.2,0-0.3,0h0.6C220.9,342.7,220.8,342.7,220.7,342.7z M219,342.9c-0.3,0.6-0.6,1.2-0.8,1.8
								c0.7,0.1,1.4,0.2,2.2,0.2v-2.2C219.9,342.7,219.4,342.8,219,342.9z M216.5,344.3c0.4,0.1,0.8,0.2,1.1,0.3
								c0.2-0.5,0.3-0.9,0.5-1.4C217.5,343.5,217,343.9,216.5,344.3z M218,345.3c-0.3,1.2-0.5,2.4-0.5,3.6h2.9v-3.3
								C219.6,345.6,218.8,345.5,218,345.3z M216,344.8c-1,1.1-1.7,2.5-1.8,4.1h2.7c0-1.2,0.2-2.5,0.6-3.7
								C216.9,345.1,216.4,344.9,216,344.8z M221,349.5v3.3c0.8,0,1.6,0.1,2.4,0.2c0.3-1.2,0.5-2.4,0.6-3.6H221z M224.5,349.5
								c0,1.3-0.2,2.5-0.6,3.7c0.5,0.1,1,0.3,1.5,0.4c1-1.1,1.7-2.5,1.8-4.1H224.5z M217.6,353.8c-0.4,0.1-0.8,0.2-1.2,0.3
								c0.5,0.4,1.1,0.8,1.7,1.1C218,354.7,217.8,354.3,217.6,353.8z M223.8,353.8c-0.2,0.5-0.3,0.9-0.6,1.4
								c0.6-0.3,1.2-0.6,1.7-1.1C224.5,354,224.2,353.9,223.8,353.8z M221,353.4v2.2c0.5,0,0.9-0.1,1.4-0.2c0.3-0.6,0.6-1.2,0.8-1.8
								C222.4,353.5,221.7,353.5,221,353.4z M218.2,353.7c0.2,0.6,0.5,1.2,0.8,1.8c0.4,0.1,0.9,0.2,1.4,0.2v-2.2
								C219.7,353.5,218.9,353.5,218.2,353.7z M216.9,349.5h-2.7c0.1,1.6,0.7,3.1,1.8,4.1c0.5-0.2,1-0.3,1.5-0.4
								C217.1,352,216.9,350.8,216.9,349.5z M217.5,349.5c0,1.2,0.2,2.4,0.6,3.6c0.8-0.1,1.6-0.2,2.4-0.2v-3.3H217.5z"/>
							<g id="XMLID_293_">
								<path id="XMLID_294_" class="st13" d="M220.4,355.7c0.1,0,0.2,0,0.3,0c0.1,0,0.2,0,0.3,0"/>
							</g>
							<g id="XMLID_291_">
								<path id="XMLID_292_" class="st13" d="M220.7,341"/>
							</g>
						</g>
					</g>
					<g>
						<polyline class="st18" points="168.9,306.1 172.9,309.4 178.6,301.5 						"/>
					</g>
					<g>
						<polyline class="st19" points="263.3,306.1 267.3,309.4 273,301.5 						"/>
					</g>
					<polyline class="st20" points="192.4,371.5 196.3,374.8 202.1,366.8 					"/>
				</g>
			</g>
		</g>
		<line class="st17" x1="245" y1="280.1" x2="245" y2="266"/>
	</g>
	<g>
		<g>
			<path class="st6" d="M521.1,441.9c0,3.6-2.9,6.5-6.5,6.5H413.7c-3.6,0-6.5-2.9-6.5-6.5V317.8c0-3.6,2.9-6.5,6.5-6.5h100.8
				c3.6,0,6.5,2.9,6.5,6.5V441.9z"/>
			<path class="st4" d="M418.1,429.9h102.5c0.3-0.8,0.5-1.6,0.5-2.5V303.4c0-3.6-2.9-6.5-6.5-6.5H413.7c-3.6,0-6.5,2.9-6.5,6.5
				v124.1c0,3.6,2.9,6.5,6.5,6.5h4.3V429.9z"/>
			<path class="st5" d="M514.6,296.9H469v133.1h51.6c0.3-0.8,0.5-1.6,0.5-2.5V303.4C521.1,299.8,518.1,296.9,514.6,296.9z"/>
			<path class="st6" d="M419.3,296.9h-5.5c-3.6,0-6.5,2.9-6.5,6.5v138.5c0,3.6,2.9,6.5,6.5,6.5h5.5V296.9z"/>
			<path class="st13" d="M516.6,429.9h-98.6c-3.8,0-6.8,3.1-6.8,6.8s3.1,6.8,6.8,6.8h98.6V429.9z"/>
		</g>
		<rect x="432.1" y="314.5" class="st13" width="73.7" height="7.2"/>
		<rect x="432.1" y="406.7" class="st13" width="73.7" height="7.2"/>
		<rect x="449.7" y="329.7" class="st13" width="38.5" height="7.2"/>
	</g>
</g>
</svg>
