<?xml version="1.0" encoding="utf-8"?>
<!-- Generator: Adobe Illustrator 22.1.0, SVG Export Plug-In . SVG Version: 6.00 Build 0)  -->
<svg version="1.1" id="ae7ad495-543d-4c4b-9483-8059c5566fe6"
	 xmlns="http://www.w3.org/2000/svg" xmlns:xlink="http://www.w3.org/1999/xlink" x="0px" y="0px" viewBox="0 0 1009.5 839.6"
	 style="enable-background:new 0 0 1009.5 839.6;" xml:space="preserve">
<style type="text/css">
	.st0{opacity:0.4;fill:#38D39F;enable-background:new    ;}
	.st1{fill:#27AE60;}
	.st2{fill:#38D39F;}
	.st3{fill:#444053;}
	.st4{fill:#3A3768;}
	.st5{fill:#E6E8EC;}
	.st6{opacity:0.1;enable-background:new    ;}
	.st7{opacity:0.1;fill:#38D39F;enable-background:new    ;}
	.st8{fill:#FFD037;}
	.st9{fill:#A8A8A8;}
	.st10{opacity:0.2;enable-background:new    ;}
	.st11{clip-path:url(#SVGID_2_);}
	.st12{fill:#FFA59F;}
	.st13{fill:none;stroke:#ED7D7A;stroke-width:0.282;stroke-linecap:round;stroke-miterlimit:10;}
	.st14{fill:#ED7D7A;}
	.st15{fill:#7A8C9B;}
	.st16{fill:#FDA29D;}
	.st17{fill:#102241;}
	.st18{fill:none;stroke:#27AE60;stroke-width:1.13;stroke-miterlimit:10;}
	.st19{fill:none;stroke:#FFFFFF;stroke-width:1.997;stroke-linecap:round;stroke-miterlimit:10;stroke-opacity:0.24;}
	.st20{fill:none;stroke:#7A8C9B;stroke-width:1.997;stroke-linecap:round;stroke-miterlimit:10;}
	.st21{fill:none;stroke:#7A8C9B;stroke-width:1.109;stroke-linecap:round;stroke-miterlimit:10;}
	.st22{fill:#F2F2F2;stroke:#7A8C9B;stroke-width:1.109;stroke-linecap:round;stroke-miterlimit:10;}
	.st23{fill:#F9F8F4;stroke:#7A8C9B;stroke-width:1.109;stroke-linecap:round;stroke-miterlimit:10;}
	.st24{fill:none;stroke:#FF342A;stroke-width:2.218;stroke-miterlimit:10;}
	.st25{opacity:0.39;fill:none;stroke:#D3C0BE;stroke-width:0.821;stroke-miterlimit:10;enable-background:new    ;}
	.st26{fill:none;stroke:#ED7D7A;stroke-width:0.27;stroke-linecap:round;stroke-miterlimit:10;}
	.st27{fill:#F4FFFA;}
	.st28{fill:none;stroke:#3A3231;stroke-width:0.598;stroke-linecap:round;stroke-miterlimit:10;}
	.st29{fill:#EACFCA;}
	.st30{fill:#BBCDD9;}
	.st31{fill:none;}
	.st32{fill:#FEFFEE;}
	.st33{fill:#2B261C;}
	.st34{fill:none;stroke:#ED7D7A;stroke-width:0.295;stroke-linecap:round;stroke-miterlimit:10;}
	.st35{fill:none;stroke:#4D5677;stroke-width:0.719;stroke-linecap:round;stroke-miterlimit:10;}
	.st36{fill:none;stroke:#4D5677;stroke-width:0.739;stroke-linecap:round;stroke-miterlimit:10;}
	.st37{fill:#F8F8F8;}
	.st38{fill:none;stroke:#00B8F1;stroke-width:1.13;stroke-miterlimit:10;}
	.st39{fill:none;stroke:#FFCC29;stroke-width:1.446;stroke-miterlimit:10;}
	.st40{fill:none;stroke:#FFCC29;stroke-width:1.064;stroke-miterlimit:10;}
	.st41{fill:#F0FFFA;}
	.st42{fill:#ABBDC6;}
	.st43{fill:#A1A6A8;}
	.st44{fill:#FFD072;}
	.st45{fill:none;stroke:#ED7D7A;stroke-width:0.263;stroke-linecap:round;stroke-miterlimit:10;}
	.st46{fill:#FFA49C;}
	.st47{fill:none;stroke:#707A87;stroke-width:0.293;stroke-miterlimit:10;}
	.st48{fill:#D5DFE8;}
	.st49{fill:#00B050;}
</style>
<title>personalization</title>
<ellipse class="st0" cx="483.5" cy="781" rx="304" ry="41.1"/>
<path class="st1" d="M333,658.6c0,0,21-3.4,33.6,11.5c0,0-9.2,7.3-29.1-2.8L333,658.6z"/>
<path class="st1" d="M330.8,658.2c0,0-13.4,16.6-6.8,34.9c0,0,10.9-4.4,12.1-26.6L330.8,658.2z"/>
<path class="st1" d="M318.8,631.1c0,0,8.4-15.4,42,6.2c0,0-4.5,10.4-19.3,9.5S322.6,639.3,318.8,631.1z"/>
<path class="st1" d="M316.6,630c0,0-17.4-2-19.1,37.9c0,0,11,2.3,18.9-10.3S320.9,637.9,316.6,630z"/>
<path class="st1" d="M306.4,598.2c0,0,9.8-27.2,45.4-7.8c0,0-8.1,24.9-41.7,17.1L306.4,598.2z"/>
<path class="st1" d="M295.5,557.6c0,0,18.5-27.4,51.3-2c0,0-11.5,25.8-48.5,11.8L295.5,557.6z"/>
<path class="st1" d="M291.6,519c0,0,21.6-25.2,54,0c0,0-20.5,22.1-54,6.4V519z"/>
<path class="st1" d="M288.2,481.4c0,0,21.8-26.3,52.9-1.4c0,0-24.6,23.2-52.9,7.6V481.4z"/>
<path class="st1" d="M290.2,448.1c0,0,23-33.9,52.1-10.9c0,0-24.6,29.1-52.1,17.4V448.1z"/>
<path class="st1" d="M295.5,409.2c0,0,24.4-33.6,52.6-7.8c0,0-28.9,29.1-52.6,14V409.2z"/>
<path class="st1" d="M303.6,374.4c0,0,28.8-31.6,54-19c0,0-30.1,33.5-55.3,27.4L303.6,374.4z"/>
<path class="st1" d="M313.7,341.4c0,0,33.3-38.6,52.6-25.8c0,0-24.5,30-55,33L313.7,341.4z"/>
<path class="st1" d="M328.2,303.2c0,0,29.1-31.6,50.4-23.7c0,0-24.9,32.8-54.3,33.6L328.2,303.2z"/>
<path class="st1" d="M341.4,267.4c0,0,32.2-30.2,46.2-24.9c0,0-23.2,33.6-47.6,31.6L341.4,267.4z"/>
<path class="st2" d="M354.3,234.3c0,0,27.7-36.1,42.8-33.3c0,0-16.8,32.2-42.8,37V234.3z"/>
<path class="st2" d="M368.3,189.8c0,0,24.5-27.7,37.7-27.6c0,0-19.3,37-38.7,36.7L368.3,189.8z"/>
<path class="st1" d="M376.5,160.1l23.7-57.7c0,0,1.2,52.1-26.7,68.4L376.5,160.1z"/>
<path class="st1" d="M386.1,96.5c0,0,3.9-48.2,1.4-52.1c0,0,16.9,40-1.6,73.4L386.1,96.5z"/>
<path class="st1" d="M305.5,597.5c0,0-24.5-15.2-40.4,22c0,0,21.8,14.5,43.3-12.5L305.5,597.5z"/>
<path class="st1" d="M294.7,556c0,0-30.1-13.7-44.7,25.1c0,0,23.3,16,47.5-15.3L294.7,556z"/>
<path class="st1" d="M290.2,521.3c0,0-21.6-25.2-54,0c0,0,20.4,22.1,54,6.4V521.3z"/>
<path class="st1" d="M287.5,481.4c0,0-21.9-26.3-52.9-1.4c0,0,24.6,23.2,52.9,7.6V481.4z"/>
<path class="st1" d="M290.2,449.1c0,0-15.3-38-48.6-21.6c0,0,18,33.7,47.3,27.9L290.2,449.1z"/>
<path class="st1" d="M297.4,409c0,0-15.2-38.6-49-20.7c0,0,20.7,35.4,47.5,26.7L297.4,409z"/>
<path class="st1" d="M306.8,374.6c0,0-6-42.3-34-46.1c0,0,5.9,44.6,30.2,53.8L306.8,374.6z"/>
<path class="st1" d="M314.4,341.5c0,0-2.4-51-25.5-52.8c0,0,0.8,38.7,22.9,60L314.4,341.5z"/>
<path class="st1" d="M330.6,301.7c0,0-6.9-42.4-29-47.6c0,0,2.7,41.1,26.8,58L330.6,301.7z"/>
<path class="st1" d="M344,267.7c0,0-0.2-44.2-13.7-50.7c0,0-8.4,40,9.8,56.3L344,267.7z"/>
<path class="st1" d="M355.3,233.8c0,0-1.9-45.5-15.9-51.9c0,0-4.8,36,13.8,54.9L355.3,233.8z"/>
<path class="st1" d="M370.2,193.4c0,0-0.1-37-10.1-45.7c0,0-9.9,40.5,4.9,53.1L370.2,193.4z"/>
<path class="st1" d="M375.4,158.3l-9.7-61.6c0,0-13.2,50.5,10.2,72.7L375.4,158.3z"/>
<path class="st1" d="M377.3,97.1c0,0-24.9-41.4-24.4-46c0,0,2.6,43.4,34,65L377.3,97.1z"/>
<path class="st1" d="M380.2,84.9c0,0-23.5-58.8-34.2-63.6c0,0,33.6,17.1,36.1,61.9L380.2,84.9z"/>
<path class="st3" d="M367.1,199.2l-1.6-0.5c19.9-64.7,24.8-106,14-116.3l1.2-1.2C392.1,92,387.5,132.8,367.1,199.2z"/>
<path class="st3" d="M312.5,350.7l-2.4-0.8c2.1-5.9,4.4-12,6.8-17.9c20.7-51.6,38.4-99.7,49.7-136.6l2.1-1
	c-11.3,37-28.6,86.8-49.4,138.5C316.8,338.8,314.6,344.8,312.5,350.7z"/>
<path class="st3" d="M362.6,707c-0.3-0.4-32.5-36.6-54.9-98.4c-13.1-36.2-20.5-74.3-21.7-112.8c-1.5-48.1,8.6-101.9,25.9-150.7
	l1.9,2.2c-38.8,109.6-23.4,203.5-2.9,260c22.2,61.3,54,97.1,54.3,97.5L362.6,707z"/>
<path class="st4" d="M645.1,289.8h4.3c1.3,0,2.3,1,2.3,2.3v68.4c0,1.3-1,2.3-2.3,2.3h-4.3c-1.3,0-2.3-1-2.3-2.3v-68.4
	C642.8,290.8,643.8,289.8,645.1,289.8z"/>
<path class="st4" d="M350.7,232.6h0.4c1.3,0,2.3,1,2.3,2.3v19.5c0,1.3-1,2.3-2.3,2.3h-0.4c-1.3,0-2.3-1-2.3-2.3v-19.5
	C348.4,233.6,349.4,232.6,350.7,232.6z"/>
<path class="st4" d="M350.5,276.6h1c1.3,0,2.3,1,2.3,2.3v37.3c0,1.3-1,2.3-2.3,2.3h-1c-1.3,0-2.3-1-2.3-2.3v-37.3
	C348.2,277.7,349.2,276.6,350.5,276.6z"/>
<path class="st4" d="M350.6,333.1h0.7c1.3,0,2.3,1,2.3,2.3V373c0,1.3-1,2.3-2.3,2.3h-0.7c-1.3,0-2.3-1-2.3-2.3v-37.6
	C348.3,334.1,349.3,333.1,350.6,333.1z"/>
<path class="st4" d="M390.2,153.2h218.4c21.5,0,39,17.5,39,39v524.4c0,21.5-17.5,39-39,39H390.2c-21.5,0-39-17.5-39-39V192.2
	C351.2,170.6,368.6,153.2,390.2,153.2z"/>
<path class="st1" d="M605.8,168.8h-34v4.1c0,10.7-8.7,19.4-19.4,19.4c0,0,0,0,0,0H444.2c-10.7,0-19.4-8.7-19.4-19.4c0,0,0,0,0,0
	v-4.1H393c-13,0-23.5,10.5-23.5,23.5v0v524c0,13,10.5,23.5,23.5,23.5h212.7c13,0,23.5-10.5,23.5-23.5V192.4
	C629.3,179.4,618.8,168.8,605.8,168.8C605.8,168.8,605.8,168.8,605.8,168.8z"/>
<path class="st5" d="M474.7,171.2h33.6c2.1,0,3.9,1.7,3.9,3.9v0.7c0,2.1-1.7,3.9-3.9,3.9h-33.6c-2.1,0-3.9-1.7-3.9-3.9V175
	C470.8,172.9,472.5,171.2,474.7,171.2z"/>
<circle class="st5" cx="523.2" cy="175.4" r="4.8"/>
<path class="st1" d="M750.2,126.7c0,0-84.2-5.1-74.3,53.9c0,0-2,10.4,7.5,15.2c0,0,0.2-4.4,8.6-2.9c3,0.5,6.1,0.6,9.2,0.4
	c4.1-0.3,8-1.9,11.2-4.6l0,0c0,0,23.7-9.8,32.9-48.5c0,0,6.8-8.4,6.5-10.6l-14.2,6.1c0,0,4.9,10.3,1,18.8c0,0-0.5-18.4-3.2-18
	c-0.5,0.1-7.4,3.6-7.4,3.6s8.3,17.9,2,30.8c0,0,2.4-22-4.7-29.5l-10,5.8c0,0,9.8,18.4,3.1,33.5c0,0,1.7-23.1-5.3-32.1l-9.1,7.1
	c0,0,9.2,18.2,3.6,30.6c0,0-0.7-26.9-5.5-28.9c0,0-7.9,7-9.1,9.9c0,0,6.3,13.2,2.4,20.2c0,0-2.4-17.9-4.3-18c0,0-7.9,11.9-8.7,20
	c0,0,0.3-12.1,6.8-21.1c0,0-7.6,1.3-12.1,6.3c0,0,1.2-8.4,14-9.1c0,0,6.5-9,8.3-9.5c0,0-12.7-1.1-20.5,2.4c0,0,6.8-7.9,22.8-4.3
	l9-7.3c0,0-16.8-2.3-23.9,0.2c0,0,8.2-7,26.3-1.9l9.7-5.8c0,0-14.3-3.1-22.8-2c0,0,9-4.9,25.7,0.4l7-3.1c0,0-10.5-2.1-13.5-2.4
	c-3.1-0.3-3.2-1.2-3.2-1.2c6.6-1.1,13.5-0.3,19.7,2.2C735.7,133.2,750.5,127.7,750.2,126.7z"/>
<path class="st1" d="M663.8,100.5c0,0-38-2.3-33.6,24.4c0,0-0.9,4.7,3.4,6.9c0,0,0.1-2,3.9-1.3c1.4,0.2,2.8,0.3,4.1,0.2
	c1.9-0.1,3.6-0.9,5-2.1l0,0c0,0,10.7-4.4,14.9-21.9c0,0,3.1-3.8,3-4.8l-6.4,2.7c0,0,2.2,4.6,0.5,8.5c0,0-0.2-8.3-1.4-8.1
	c-0.3,0-3.3,1.6-3.3,1.6s3.8,8.1,0.9,13.9c0,0,1.1-9.9-2.1-13.4l-4.5,2.7c0,0,4.4,8.3,1.4,15.1c0,0,0.8-10.4-2.4-14.5l-4.1,3.2
	c0,0,4.1,8.2,1.6,13.9c0,0-0.3-12.1-2.5-13.1c0,0-3.6,3.2-4.1,4.5c0,0,2.8,6,1.1,9.1c0,0-1.1-8.1-2-8.1c0,0-3.6,5.4-3.9,9
	c0.2-3.4,1.2-6.7,3.1-9.5c-2.1,0.4-4,1.4-5.5,2.8c0,0,0.6-3.8,6.3-4.1c0,0,3-4.1,3.7-4.3c0,0-5.8-0.5-9.3,1.1c0,0,3.1-3.6,10.3-1.9
	l4-3.3c0,0-7.6-1-10.8,0.1c0,0,3.7-3.2,11.9-0.9l4.4-2.6c0,0-6.5-1.4-10.3-0.9c0,0,4.1-2.2,11.6,0.2l3.2-1.4c0,0-4.7-0.9-6.1-1.1
	s-1.5-0.5-1.5-0.5c3-0.5,6.1-0.2,8.9,1C657.2,103.5,664,100.9,663.8,100.5z"/>
<path class="st6" d="M561.4,600.8c0,0,9.3,0.3,11.5,1.5"/>
<path class="st6" d="M563.2,604.2c0,0,8.5-0.3,9.7,1"/>
<path class="st6" d="M594,785.3c0,0-13.5-0.8-13,2.9"/>
<ellipse class="st7" cx="864.2" cy="773.3" rx="26.9" ry="4.5"/>
<ellipse class="st7" cx="91.1" cy="810.7" rx="26.9" ry="4.5"/>
<ellipse class="st7" cx="195.3" cy="835.1" rx="26.9" ry="4.5"/>
<ellipse class="st1" cx="805.2" cy="822.1" rx="40.2" ry="6.8"/>
<path class="st1" d="M821.9,811c1.8-1.5,3.2-3.5,3.8-5.8c0.5-2.3-0.5-5-2.7-5.9c-2.5-0.9-5.1,0.8-7.1,2.5s-4.3,3.7-6.9,3.3
	c2.7-2.5,4-6.2,3.3-9.8c-0.1-0.7-0.4-1.4-0.9-2c-1.4-1.5-3.8-0.8-5.5,0.3c-5.2,3.7-6.7,10.7-6.7,17.1c-0.5-2.3-0.1-4.7-0.1-7
	s-0.7-5-2.6-6.2c-1.2-0.7-2.6-1-4-0.9c-2.3-0.1-4.9,0.2-6.5,1.9c-2,2.1-1.5,5.7,0.3,8s4.3,3.8,6.8,5.4c1.9,1.2,3.6,2.7,4.8,4.6
	c0.1,0.3,0.3,0.5,0.4,0.8h14.6C816.1,815.6,819.1,813.5,821.9,811z"/>
<path class="st1" d="M196.6,723.3c0,0,5.5,7.2-2.5,18s-14.6,20-12,26.8c0,0,12.1-20.2,22-20.4S207.5,735.4,196.6,723.3z"/>
<path class="st6" d="M196.6,723.3c0.5,0.7,0.9,1.5,1.1,2.3c9.6,11.3,14.8,21.8,5.5,22.1c-8.6,0.3-18.9,15.7-21.4,19.5
	c0.1,0.3,0.2,0.6,0.3,0.9c0,0,12.1-20.2,22-20.4S207.5,735.4,196.6,723.3z"/>
<path class="st8" d="M206.9,732.4c0,2.5-0.3,4.6-0.6,4.6s-0.6-2-0.6-4.6s0.4-1.3,0.7-1.3S206.9,729.9,206.9,732.4z"/>
<path class="st8" d="M210.4,735.5c-2.2,1.2-4.2,1.9-4.3,1.6s1.5-1.5,3.7-2.8s1.4-0.3,1.5,0S212.6,734.2,210.4,735.5z"/>
<path class="st1" d="M167.6,723.3c0,0-5.5,7.2,2.5,18s14.6,20,12,26.8c0,0-12.1-20.2-22-20.4S156.8,735.4,167.6,723.3z"/>
<path class="st6" d="M167.6,723.3c-0.5,0.7-0.9,1.5-1.1,2.3c-9.6,11.3-14.7,21.8-5.5,22.1c8.6,0.3,19,15.7,21.4,19.5
	c-0.1,0.3-0.2,0.6-0.3,0.9c0,0-12.1-20.2-22-20.4S156.8,735.4,167.6,723.3z"/>
<path class="st8" d="M157.4,732.4c0,2.5,0.3,4.6,0.6,4.6s0.6-2,0.6-4.6s-0.4-1.3-0.7-1.3C157.6,731.1,157.4,729.9,157.4,732.4z"/>
<path class="st8" d="M153.9,735.5c2.2,1.2,4.1,1.9,4.3,1.6s-1.5-1.5-3.7-2.8s-1.3-0.3-1.5,0C152.8,734.7,151.7,734.2,153.9,735.5z"
	/>
<path class="st9" d="M159.2,767.1c0,0,15.4-0.5,20-3.8s23.6-7.2,24.8-2s23.1,26.3,5.8,26.4s-40.3-2.7-44.9-5.5
	S159.2,767.1,159.2,767.1z"/>
<path class="st10" d="M210,786c-17.3,0.1-40.3-2.7-44.9-5.5c-3.5-2.2-4.9-9.8-5.4-13.4h-0.5c0,0,1,12.4,5.6,15.2s27.6,5.7,44.9,5.5
	c5,0,6.7-1.8,6.6-4.5C215.6,785,213.7,786,210,786z"/>
<g>
	<defs>
		<rect id="SVGID_1_" x="110.3" y="145.2" width="789" height="652.6"/>
	</defs>
	<clipPath id="SVGID_2_">
		<use xlink:href="#SVGID_1_"  style="overflow:visible;"/>
	</clipPath>
	<g class="st11">
		<path class="st12" d="M466.6,299.6c-8.4-8.4-45.1-10.2-45.1-10.2l-2.8,14.5l33.6,5.1l-18.4,28.9c0,0-7.1,5.2-10.6,4.4
			c-0.1,0.3-0.1,0.7-0.1,1c0.1,0.3,0.3,0.6,0.5,0.8c1.6,0.9,3.5,1.1,5.3,0.6c0,0-7.2,10.8-6,11.1c1.2,0.3,5.6-4.9,5.6-4.9
			s-6,8.4-4.5,8.5c2.2-2.1,4.3-4.3,6.2-6.6c0,0-3.4,7.4-2.1,6.6c1.7-0.9,5.2-5.9,5.2-5.9s-2.6,5.7-1.6,5.1
			c1.1-0.7,10.1-14.5,10.1-14.5l3.9-3.9C475.8,315.3,466.6,299.6,466.6,299.6L466.6,299.6z"/>
		<path class="st12" d="M393.5,239.4c-3.8,6.8-7.6,17.2-0.3,22.9l-5.5,21c0,0,3.8,10.8,22.6,3.7l4.5-27.1c0,0,7.8-17.2,1.4-24.3
			c-1.5-1.6-3.4-2.8-5.6-3.4c-3.3-0.9-6.7-0.7-9.8,0.6S395.1,236.5,393.5,239.4L393.5,239.4z"/>
		<path class="st12" d="M417.2,253.2c1.6-5.6,2.8-13.3-1-17.5c-1.5-1.6-3.4-2.8-5.6-3.4c-3.3-0.9-6.7-0.7-9.8,0.6
			c-3.1,1.3-5.7,3.7-7.3,6.6c-3.8,6.8-7.6,17.2-0.3,22.9l-5.5,21c0,0,3.8,10.8,22.6,3.7l4.5-27.1c0,0,0.2-0.5,0.6-1.3
			c2.6,0.1,4.4-3.4,2.3-5L417.2,253.2L417.2,253.2z"/>
		<path class="st13" d="M415.2,256.5c0,0,1.2-1.9,2-0.6"/>
		<path class="st14" d="M393.2,262.3c0,0,2,1.7,6.6,1.4c-2.4,1.2-5,2.1-7.6,2.6L393.2,262.3z"/>
		<path class="st15" d="M412,227.3c0,0-10.3-3.7-10.3,1.1c0,4.8,2.8,8.9,11.2,10.1s4.2,14.7,4.2,14.7S429.7,235.3,412,227.3
			L412,227.3z"/>
		<path class="st16" d="M354.1,250.4c-5.4-5.2-10.2-11.2-14-17.6c-4.1-6.6-8.5-13-13.3-19.1l-2.5-3.8c0,0-0.1-0.2-0.2-0.5
			c-0.7-2-1.9-6.4-0.8-8.4c-0.2-0.2-0.5-0.3-0.8-0.3c-0.3,0-0.5,0.1-0.8,0.2c-1.1,1.1-1.7,2.5-1.7,4.1c0,0-7-8.2-7.5-7.3
			c-0.5,0.9,2.7,5.6,2.7,5.6s-5.6-6.5-5.8-5.5c-0.1,0.4,0,0,3.9,6.4c0,0-5.1-4.4-4.8-3.2c0.9,2,2.1,3.8,3.5,5.5c0,0-4-3.4-3.7-2.4
			c0.2,0.8,6.1,7.1,8.5,9.9c2.8,8.2,6.1,16.3,10,24.1c0.3,0.6,0.6,1.2,1,1.9c1.6,3,3.4,5.9,5.5,8.7c6.8,9.8,14.2,19.1,22.2,27.9
			l12.5-11.9C367.9,264.5,361.3,257.3,354.1,250.4L354.1,250.4z"/>
		<path class="st17" d="M365.1,260.5c0,0,11.6,14.7,28.3,19.7c16.4,4.9,26.8,6.3,45.8,10.3l-3.4,17.2l-16.6-1.3
			c0,0,1.1,16.9,1.5,29.1h-53.3c0,0,3.1-18.4,4.7-30.8c0.3-2.7,0.1-5.5-0.8-8.1c-0.9-2.6-2.3-5-4.3-7L351.5,274L365.1,260.5
			L365.1,260.5z"/>
		<path class="st18" d="M300.1,211.8c15.8,0,28.5-12.8,28.5-28.5s-12.8-28.5-28.5-28.5c-15.8,0-28.5,12.8-28.5,28.5
			S284.3,211.8,300.1,211.8z"/>
		<path class="st1" d="M292.5,768.1c-12.5-1.2-23.2-9.4-32.2-18.1c-9-8.7-17.2-18.6-27.8-25.3c-8.5-5.4-18.1-8.7-27.2-13
			c-13.6-6.5-25.9-15.4-36.4-26.2c-5.7-5.9-11.1-13.5-9.8-21.6c1.8-11,14.1-16.1,23.8-21.4c9.8-5.3,19.2-17.7,12.4-26.4
			c-2.2-2.6-5.2-4.4-8.4-5.3c-16.9-5.9-36.8-1.5-52.4-10.3c-8.2-4.6-14.1-12.5-18.5-20.8c-7.7-14.7-9.4-36.3,4.9-44.7
			c6.7-3.9,15.2-3.8,21.8-7.9c12.4-7.7,12.1-26,7-39.6c-5.1-13.6-13.6-26.8-12.9-41.3c0.7-13.8,9.8-25.7,19.5-35.6
			c2.4-2.4,5-4.9,8.4-5.5c5.9-0.9,10.8,4.4,14.4,9.1l33.4,44.1c1.1,1.9,2.8,3.3,4.9,4.1c4.1,1.1,7.5-3.1,9.5-6.7
			c4.4-8,8.3-16.6,14.6-23.2c6.3-6.6,16.1-11,24.7-8.1c7.4,2.5,12.3,9.6,15.8,16.6c8.3,16.6,12,35.1,11,53.6
			c-0.9,14.9-4.9,29.6-4.8,44.6c0.1,15,5.6,31.2,18.6,38.6c8.6,4.9,19.2,5.1,27.8,9.8c16.8,9.1,21.2,31.1,21,50.2
			c-0.4,40.1-12.4,79.1-34.6,112.5C321.3,750.2,310.3,769.7,292.5,768.1L292.5,768.1z"/>
		<path class="st19" d="M150,417.6c0,0,129.1,217.9,150.7,339"/>
		<path class="st19" d="M115.6,566.4c0,0,66.2-8.8,117.8,8.2"/>
		<path class="st19" d="M159.1,663.8c0,0,107.4,27,128.2,41.4"/>
		<path class="st20" d="M343.8,599.7c0,0-43.9,94.4-51.8,116.3"/>
		<path class="st1" d="M721,763.2c-9.9-7.7-14.5-20.4-17.5-32.6c-3-12.2-4.6-24.9-9.8-36.3c-4.2-9.1-10.6-17-16-25.5
			c-8-12.8-13.6-26.9-16.6-41.6c-1.6-8-2.1-17.3,3.3-23.5c7.4-8.3,20.5-6,31.6-5.3c11.1,0.7,25.7-4.6,24.6-15.7
			c-0.5-3.3-2-6.5-4.2-9c-11.1-14.1-30.3-21-38.7-36.8c-4.4-8.3-5.2-18.1-4.4-27.5c1.4-16.5,11.6-35.7,28.2-35.1
			c7.8,0.3,14.9,5,22.6,5.1c14.5,0.2,24.1-15.4,27.1-29.7c3-14.2,2.9-29.9,11.3-41.7c8-11.3,22.1-16.5,35.5-19.6
			c3.3-0.8,6.9-1.4,10-0.1c5.5,2.4,6.8,9.5,7.3,15.4l4.6,55.1c-0.1,2.2,0.6,4.3,1.9,6.1c2.8,3.1,8,1.4,11.7-0.6
			c8-4.4,15.9-9.5,24.7-11.7c8.9-2.2,19.5-0.7,25.2,6.4c4.9,6.1,5.2,14.7,4.4,22.5c-1.9,18.4-8.6,36-19.5,51.1
			c-8.8,12.1-20,22.4-28,35.1c-7.9,12.7-12.1,29.4-5,42.6c4.6,8.7,13.4,14.6,18.2,23.2c9.3,16.7,1.2,37.6-9.2,53.7
			c-21.8,33.6-52.9,60.1-89.5,76.4C754.9,763.6,735.1,774.1,721,763.2L721,763.2z"/>
		<path class="st19" d="M788.7,391c0,0-7.9,253.1-54.6,367"/>
		<path class="st20" d="M679.9,498.2c0,0,60.6,28.1,95,70"/>
		<path class="st20" d="M664.4,603.7c0,0,76.2,80.4,86,103.7"/>
		<path class="st19" d="M887.3,467.2c0,0-90,85-114.2,115.3"/>
		<path class="st19" d="M854.6,648.6c0,0-87.7,56.1-106.1,70.4"/>
		<path class="st21" d="M291.5,383.8l-80.8,383.4"/>
		<path class="st21" d="M251.9,382.4l-80.8,383.4"/>
		<path class="st21" d="M246,410.6l39.6,1.5"/>
		<path class="st21" d="M239.8,441.7l39.6,1.5"/>
		<path class="st21" d="M233.2,472.2l39.6,1.5"/>
		<path class="st21" d="M227.7,502l39.6,1.5"/>
		<path class="st21" d="M220.5,534.7l39.6,1.5"/>
		<path class="st21" d="M212.4,572.7l39.6,1.5"/>
		<path class="st21" d="M205.5,604.3l39.6,1.5"/>
		<path class="st21" d="M198.1,638.3l39.6,1.5"/>
		<path class="st21" d="M190.3,677.9l39.6,1.5"/>
		<path class="st21" d="M184.3,705.3l39.6,1.5"/>
		<path class="st22" d="M732.9,332.7H311.3c-10.6,0-19.3,8.6-19.3,19.3v395.9c0,10.6,8.6,19.3,19.3,19.3h421.7
			c10.6,0,19.3-8.6,19.3-19.3V352C752.2,341.3,743.6,332.7,732.9,332.7L732.9,332.7z"/>
		<path class="st22" d="M732.9,371.3H311.3c-5.1,0-10-2-13.6-5.6s-5.6-8.5-5.6-13.6c0-5.1,2-10,5.6-13.6s8.5-5.6,13.6-5.6h421.7
			c5.1,0,10,2,13.6,5.6c3.6,3.6,5.6,8.5,5.6,13.6c0,5.1-2,10-5.6,13.6C743,369.2,738,371.3,732.9,371.3z"/>
		<path class="st23" d="M326.9,359.3c4,0,7.3-3.3,7.3-7.3c0-4-3.3-7.3-7.3-7.3c-4,0-7.3,3.3-7.3,7.3
			C319.6,356,322.8,359.3,326.9,359.3z"/>
		<path class="st23" d="M359.9,352c0,1.4-0.4,2.9-1.2,4.1c-0.8,1.2-1.9,2.1-3.3,2.7c-1.3,0.6-2.8,0.7-4.2,0.4c-1.4-0.3-2.7-1-3.7-2
			c-1-1-1.7-2.3-2-3.7s-0.1-2.9,0.4-4.2c0.6-1.3,1.5-2.5,2.7-3.3c1.2-0.8,2.6-1.2,4.1-1.2c1.9,0,3.8,0.8,5.2,2.1
			C359.1,348.2,359.9,350,359.9,352L359.9,352z"/>
		<path class="st23" d="M385.6,352c0,1.4-0.4,2.9-1.2,4.1c-0.8,1.2-1.9,2.1-3.3,2.7c-1.3,0.6-2.8,0.7-4.2,0.4c-1.4-0.3-2.7-1-3.7-2
			s-1.7-2.3-2-3.7c-0.3-1.4-0.1-2.9,0.4-4.2c0.6-1.3,1.5-2.5,2.7-3.3c1.2-0.8,2.6-1.2,4.1-1.2c1.9,0,3.8,0.8,5.2,2.1
			C384.8,348.2,385.6,350,385.6,352L385.6,352z"/>
		<path class="st21" d="M368.2,691.5c7.2-7.2,7.2-18.8,0-26c-7.2-7.2-18.8-7.2-26,0c-7.2,7.2-7.2,18.8,0,26
			C349.3,698.7,361,698.7,368.2,691.5z"/>
		<path class="st21" d="M405.6,660.1h301.8"/>
		<path class="st21" d="M405.6,678.5h301.8"/>
		<path class="st21" d="M405.6,696.9h301.8"/>
		<path class="st21" d="M368.2,461.2c7.2-7.2,7.2-18.8,0-26c-7.2-7.2-18.8-7.2-26,0c-7.2,7.2-7.2,18.8,0,26
			C349.3,468.3,361,468.3,368.2,461.2L368.2,461.2z"/>
		<path class="st21" d="M405.6,429.8h301.8"/>
		<path class="st21" d="M405.6,448.2h301.8"/>
		<path class="st21" d="M405.6,466.6h301.8"/>
		<path class="st24" d="M347.2,443.3l8.3,9.2l23.5-21.8"/>
		<path class="st21" d="M368.2,537.9c7.2-7.2,7.2-18.8,0-26c-7.2-7.2-18.8-7.2-26,0c-7.2,7.2-7.2,18.8,0,26
			C349.3,545.1,361,545.1,368.2,537.9z"/>
		<path class="st21" d="M405.6,506.5h301.8"/>
		<path class="st21" d="M405.6,524.9h301.8"/>
		<path class="st21" d="M405.6,543.3h301.8"/>
		<path class="st24" d="M347.2,519.6l8.3,9.2L379,507"/>
		<path class="st21" d="M368.2,614.7c7.2-7.2,7.2-18.8,0-26c-7.2-7.2-18.8-7.2-26,0c-7.2,7.2-7.2,18.8,0,26
			C349.3,621.9,361,621.9,368.2,614.7z"/>
		<path class="st21" d="M405.6,583.3h301.8"/>
		<path class="st21" d="M405.6,601.7h301.8"/>
		<path class="st21" d="M405.6,620.1h301.8"/>
		<path class="st24" d="M347.2,599.4l8.3,9.2l23.5-21.8"/>
		<path class="st12" d="M440.3,327.9l-6.4,10.1c0,0-7.1,5.2-10.6,4.4c-0.1,0.3-0.1,0.7-0.1,1c0.1,0.3,0.3,0.6,0.5,0.8
			c1.6,0.9,3.5,1.1,5.3,0.6c0,0-7.2,10.8-6,11.1c1.2,0.3,5.6-4.9,5.6-4.9s-6,8.4-4.5,8.5c2.2-2.1,4.3-4.3,6.2-6.6
			c0,0-3.4,7.4-2.1,6.6c1.7-0.9,5.2-5.9,5.2-5.9s-2.6,5.7-1.6,5.1c1.1-0.7,10.1-14.5,10.1-14.5l3.9-3.9c4.7-3.8,8.9-8,12.7-12.7
			C452.3,327.7,446.3,328,440.3,327.9L440.3,327.9z"/>
		<path class="st25" d="M816,795.4c-39.8,2.8-76,1.5-116.6,1.3c5.3-2.9,15.6-2.9,24.5-2.7C760,794.8,779.9,794.6,816,795.4
			c-25.5-0.7-34.7-0.5-60.2-1.2L816,795.4z"/>
		<path class="st17" d="M764.8,421c0,0,16.6-7.4,21.4,7.4c4.7,14.9,2.5,32.5,2.5,32.5h-18.2L764.8,421z"/>
		<path class="st12" d="M753.8,430.2c-2.7,7-5.1,17.3,2.6,21.8l-2.7,20.7c0,0,5,9.8,22,0.7l0.9-26.4c0,0,5.3-17.3-1.7-23.3
			c-1.6-1.4-3.6-2.3-5.7-2.6c-3.2-0.5-6.5,0.2-9.3,1.8C757.1,424.6,754.9,427.1,753.8,430.2L753.8,430.2z"/>
		<path class="st12" d="M778,440.3c0.8-5.5,1-13.1-3.1-16.6c-1.6-1.4-3.6-2.3-5.7-2.6c-3.2-0.5-6.5,0.2-9.3,1.8
			c-2.8,1.6-5,4.2-6.1,7.2c-2.7,7-5.1,17.3,2.6,21.8l-2.7,20.7c0,0,5,9.8,22,0.7l0.9-26.4c0,0,0.2-0.5,0.4-1.4
			c2.5-0.2,3.8-3.8,1.6-5L778,440.3z"/>
		<path class="st26" d="M776.6,443.6c0,0,0.9-1.9,1.9-0.8"/>
		<path class="st14" d="M756.4,452c2,1,4.3,1.2,6.4,0.5c-2.2,1.4-4.5,2.6-6.9,3.4L756.4,452z"/>
		<path class="st16" d="M752.8,469.9c0,0-24.6,19.8-38.5,34.7c-0.9,1-1.8,2.1-2.7,3.2c-1.2,1.3-2.1,2.8-2.9,4.5
			c-0.4,0.8-0.6,1.6-0.6,2.5c0,0.9,0.2,1.7,0.6,2.4c0.4,0.8,1,1.4,1.7,1.9c0.7,0.5,1.5,0.8,2.3,0.9c0.2,0,0.4,0,0.7,0
			c6.7-0.5,18.9-5.6,39.4-26.8L752.8,469.9L752.8,469.9z"/>
		<path class="st16" d="M858.3,451c0,0,5.9-3,8.4-1.9c0.1-0.2,0.2-0.5,0.2-0.7c0-0.3-0.1-0.5-0.3-0.7c-1.1-0.9-2.4-1.3-3.8-1.2
			c0,0,6.8-7.1,5.9-7.4c-0.9-0.4-4.8,2.9-4.8,2.9s5.4-5.6,4.5-5.7c-0.4,0,0,0-5.4,4.1c0,0,3.5-5,2.4-4.6c-1.7,1-3.2,2.3-4.6,3.7
			c0,0,2.7-3.9,1.8-3.6c-0.9,0.4-9.4,9.4-9.4,9.4l-3.4,2.4c-7.6,4.2-14.9,9.2-21.6,14.7c-4.2,3.7-9.6,5.9-15.2,6.1
			c-10.2,0.3-19.9,1.6-19.9,1.6l-6.8,18.6c0,0,27.8-6.2,41.4-11.7C839.2,473.8,858.3,451,858.3,451L858.3,451z"/>
		<path class="st12" d="M723.6,670.4l-6.2,118.9l6.2-0.1L747,669.9L723.6,670.4z"/>
		<path class="st12" d="M765.1,670.2v118.7h8.4l11-120.9L765.1,670.2z"/>
		<path class="st27" d="M761.8,796.1l0.9-26.3l15.1,0c0,0-0.9,10.4,1.7,11.5c2.7,1.2,17.3,2.8,18.1,13L761.8,796.1L761.8,796.1z"/>
		<path class="st28" d="M761.6,791.9l35-1.4"/>
		<path class="st28" d="M771.3,791.6c0,0-1.9-8.2-9.9-7.2"/>
		<path class="st28" d="M786.7,791l1-7.3"/>
		<path class="st28" d="M775.7,783.1l2.7-3"/>
		<path class="st28" d="M779,785.1l2.2-3.3"/>
		<path class="st28" d="M782.8,786.5l1.3-4"/>
		<path class="st28" d="M766.3,778.5c0.3,0,0.7,0.1,0.9,0.3c0.3,0.2,0.5,0.5,0.6,0.8c0.1,0.3,0.1,0.7,0,1c-0.1,0.3-0.3,0.6-0.5,0.9
			c-0.3,0.2-0.6,0.4-0.9,0.4c-0.3,0.1-0.7,0-1-0.1c-0.3-0.1-0.6-0.4-0.7-0.7c-0.2-0.3-0.3-0.6-0.2-1c0-0.5,0.2-0.9,0.6-1.2
			C765.4,778.7,765.8,778.5,766.3,778.5L766.3,778.5L766.3,778.5z"/>
		<path class="st27" d="M730.9,796.1l-1.7-26.3l-15.1,0.4c0,0,1.3,10.3-1.3,11.6c-2.6,1.2-17.2,3.3-17.7,13.5L730.9,796.1z"/>
		<path class="st28" d="M731,791.9l-35-0.3"/>
		<path class="st28" d="M721.4,791.8c0,0,1.6-8.3,9.7-7.5"/>
		<path class="st28" d="M705.9,791.7l-1.3-7.2"/>
		<path class="st28" d="M716.7,783.5l-2.8-2.9"/>
		<path class="st28" d="M713.4,785.7l-2.3-3.3"/>
		<path class="st28" d="M709.7,787.2l-1.4-4"/>
		<path class="st28" d="M725.9,778.7c-0.3,0-0.7,0.2-0.9,0.4c-0.3,0.2-0.5,0.5-0.6,0.8c-0.1,0.3-0.1,0.7,0,1
			c0.1,0.3,0.3,0.6,0.5,0.8c0.3,0.2,0.6,0.4,0.9,0.4c0.3,0,0.7,0,1-0.2c0.3-0.2,0.6-0.4,0.7-0.7s0.2-0.6,0.2-1
			c0-0.2-0.1-0.4-0.2-0.7c-0.1-0.2-0.2-0.4-0.4-0.5c-0.2-0.1-0.4-0.3-0.6-0.3C726.4,778.7,726.2,778.6,725.9,778.7L725.9,778.7z"/>
		<path class="st29" d="M752.9,467.5c0,0-5.4,12.5-20.6,25.6l10.7-1c0,0-10.2,31.3-2.5,35.9h35.3c0,0,5.1-2.9,5.5-17.4
			c0.4-14.5,1-15.1,1-15.1l20.6-5.5v-20.8l-25-2.6C777.9,466.5,763.9,474.5,752.9,467.5L752.9,467.5z"/>
		<path class="st30" d="M740.5,527.9c0,0-5.7,0-18.5,76.3c-12.8,76.3-25.1,156.2-25.1,156.2h43.7l15.4-158.8l4.4,0.4v158.4l40.6,1.8
			L791.2,603c0,0,3.1-64-15.4-75L740.5,527.9L740.5,527.9z"/>
		<path class="st29" d="M752.9,467.5c0,0-18.8,14.6-25.5,21.5l6.5,21.5l8.9-5.3L752.9,467.5L752.9,467.5z"/>
		<path class="st17" d="M760.3,422.7c3.8,1.4,8,1.5,11.9,0.4c0,0-3.4,18.9,7.5,17.2c0,0,2-12.5-1.2-16.6
			C775.4,419.6,772.1,416.1,760.3,422.7z"/>
		<path class="st17" d="M744.9,479.1l33.6-3.1V535l-36.5,2L744.9,479.1z"/>
		<rect x="741.6" y="475.7" class="st31" width="38" height="62.1"/>
		<path class="st32" d="M772.3,498.7l-21.5,1.6v-8.7l21.5-1.7V498.7L772.3,498.7z"/>
		<path class="st12" d="M757.7,496l-7.2-5.1C705.3,505.6,709,514,709,514C714.4,529.7,757.7,496,757.7,496z"/>
		<path class="st12" d="M748.9,491.9c0,0,4.5-6.5,4.3-9.7c0.3-0.1,0.6,0,0.9,0.1c0.3,0.1,0.5,0.3,0.6,0.6c0.5,1.5,0.5,3.2-0.2,4.6
			c0,0,10.4-4.8,10.5-3.7c0.1,1.1-5.1,4.2-5.1,4.2s8.3-3.8,8-2.7c-0.1,0.4,0,0-6.6,4.4c0,0,6.9-2,6-0.9c-1.8,1.5-3.7,2.7-5.8,3.7
			c0,0,5.3-1.5,4.6-0.6c-0.7,0.8-14,6.7-14,6.7l-2.3-2.2L748.9,491.9z"/>
		<path class="st25" d="M281.3,783.8c-39.7,3.7-75.9,3.2-116.5,4c5.2-3,15.5-3.3,24.4-3.3C225.3,784.5,245.2,783.9,281.3,783.8
			c-25.5-0.1-34.7,0.3-60.2,0.2L281.3,783.8z"/>
		<path class="st33" d="M266.9,452.7c-6.4-3.2-4.8-9.2-15.9-11.9c-11.1-2.7-13.8,10.9-17.6,12.2c-4.5,1.6-9.6,5.9-13.3,11.5
			c-1,1.5-2.2,2.8-3.7,3.9c-1.5,1-3.2,1.8-4.9,2.1l-0.6,0.1c-23.2,4.8-15.8,38.6,11.5,45.9c27.2,7.3,48.6-43.5,48.6-43.5
			S276.4,457.4,266.9,452.7L266.9,452.7z"/>
		<path class="st12" d="M266.8,468c-0.2-0.5-0.5-0.9-0.9-1.3c-0.4-0.3-0.9-0.5-1.4-0.6c0.1-2.2,0-4.4-0.2-6.6
			c-0.1-1.6-0.5-3.2-1.2-4.6c-0.9-2.2-2.5-4.1-4.5-5.4c-2-1.3-4.4-2-6.8-1.9c-7.1,0.2-11.3,4.1-13.4,11.6c-0.6,2.5-0.8,5.1-0.6,7.7
			c-0.7,0.1-1.3,0.4-1.8,0.9c-0.5,0.5-0.7,1.2-0.7,1.9c0,0.7,0.3,1.3,0.9,1.8c0.5,0.5,1.2,0.7,1.9,0.7l0.6,0
			c0.7,3.1,2.1,5.9,4.1,8.3l-1.2,21.3c-0.1,1.3,0.3,2.7,1,3.8c0.7,1.1,1.8,2,3.1,2.5c2.3,0.9,4.8,1.3,7.3,1.2c2.5-0.1,4.9-0.8,7.1-2
			c0.9-0.5,1.7-1.2,2.2-2.2c0.5-0.9,0.7-2,0.6-3.1l-2.7-22c1.8-2.5,3-5.5,3.6-8.5l0.5-0.1c0.4,0,0.8-0.1,1.2-0.3
			c0.4-0.2,0.7-0.5,0.9-0.8c0.2-0.3,0.4-0.7,0.5-1.1C266.9,468.8,266.9,468.4,266.8,468L266.8,468z"/>
		<path class="st14" d="M242.8,480.5c4.8,3.7,9.8,5.6,17.4-0.5c0,0-7.4,9.7-17.7,6.1L242.8,480.5L242.8,480.5z"/>
		<path class="st34" d="M264.8,470c0,0,1.5-1.7,0-2.2"/>
		<path class="st34" d="M237.8,470.6c0,0-1.6-1.7-0.1-2.2"/>
		<path class="st27" d="M240.6,788l0.9-32.6l18.2-0.3c0,0,0.9,14.4,4.1,16.1c3.2,1.7,21.1,4.9,21.2,17.6L240.6,788L240.6,788z"/>
		<path class="st35" d="M240.8,782.8l43.3,1.4"/>
		<path class="st35" d="M252.7,783.2c0,0-1.6-10.3-11.6-9.7"/>
		<path class="st35" d="M271.7,783.8l1.9-8.9"/>
		<path class="st35" d="M258.9,773.1l3.6-3.5"/>
		<path class="st36" d="M262.8,776l3.1-3.9"/>
		<path class="st35" d="M267.3,778.1l2-4.8"/>
		<path class="st35" d="M247.7,766.7c0.4,0.1,0.8,0.2,1.1,0.5c0.3,0.3,0.6,0.6,0.7,1c0.1,0.4,0.1,0.8,0,1.2c-0.1,0.4-0.4,0.8-0.7,1
			c-0.3,0.3-0.7,0.4-1.2,0.4c-0.4,0-0.8-0.1-1.2-0.3c-0.4-0.2-0.7-0.5-0.9-0.9c-0.2-0.4-0.3-0.8-0.2-1.2c0.1-0.6,0.4-1.1,0.8-1.4
			C246.6,766.8,247.1,766.6,247.7,766.7L247.7,766.7z"/>
		<path class="st29" d="M232.8,543.6l-3.9,26.7c-2.2,15.2-2.8,30.6-1.7,45.9l10,142.4h29l-1.8-203.8L232.8,543.6L232.8,543.6z"/>
		<path class="st27" d="M195,733l29.8-13.1l8,16.3c0,0-12.7,7-12.8,10.6s4.5,21.2-6.9,26.7L195,733L195,733z"/>
		<path class="st35" d="M199.7,731l17.2,39.8"/>
		<path class="st35" d="M204.4,741.9c0,0,8.7-5.8,3.8-14.7"/>
		<path class="st35" d="M211.9,759.4l8.8-2"/>
		<path class="st35" d="M216.1,743.2l4.7,1.8"/>
		<path class="st36" d="M215.3,747.9l4.9,1.1"/>
		<path class="st35" d="M215.3,752.9l5.2-0.3"/>
		<path class="st35" d="M217.2,730.3c0.1,0.4,0.1,0.8,0,1.2c-0.1,0.4-0.3,0.8-0.7,1c-0.3,0.3-0.7,0.5-1.1,0.5
			c-0.4,0.1-0.8,0-1.2-0.2c-0.4-0.2-0.7-0.5-0.9-0.9c-0.2-0.4-0.3-0.8-0.3-1.2c0-0.4,0.2-0.8,0.5-1.2c0.3-0.3,0.6-0.6,1-0.7
			c0.3-0.1,0.5-0.1,0.8-0.1c0.3,0,0.6,0.1,0.8,0.2c0.3,0.1,0.5,0.3,0.7,0.5C216.9,729.8,217.1,730.1,217.2,730.3L217.2,730.3
			L217.2,730.3z"/>
		<path class="st29" d="M273.9,540.6l56.8,122c0,0,6.4,28.2-16.8,39.6c-23.3,11.4-83.5,41.9-83.5,41.9l-12.8-26.9l80.2-40.5
			l-58.1-128.1L273.9,540.6L273.9,540.6z"/>
		<path class="st16" d="M309.2,535.4c0.9-13.7,10.5-35.3,10.5-35.3s0-6.9-2.1-8.7c0.1-0.2,0.3-0.4,0.6-0.5c0.2-0.1,0.5-0.1,0.8,0
			c1.3,0.6,2.3,1.7,2.8,3c0,0,3.5-9.6,4.2-9c0.7,0.6-0.5,5.8-0.5,5.8s2.8-7.6,3.3-6.8c0.2,0.3,0,0-1.4,7c0,0,3.1-5.6,3.2-4.4
			c-0.2,2.1-0.6,4.1-1.3,6c0,0,2.4-4.3,2.5-3.3c0.1,1-4.5,13.1-4.5,13.1l-0.7,4.3c-2.5,36.7-9.7,39.6-11.6,39.7
			c-4.5,1.8-19.6,4.3-48.3-24.9l-0.1-24.1C266.6,497.3,295.1,519.8,309.2,535.4L309.2,535.4z"/>
		<path class="st12" d="M207.9,555.5c13.3-12.4,30.7-32.2,30.7-32.2l-18.5-7.5c0,0-14,19.1-19.9,29.3c-5.4,3.1-13.3,9.4-24.9,21.6
			l-3.3,3c0,0-11.6,6.6-12.2,7.4c-0.6,0.8,4.2-1,4.2-1c-1.8,1.1-3.5,2.4-5,3.9c-0.7,1,5.4-1.4,5.4-1.4c-5.6,4.7-5.6,4.3-5.6,4.7
			c-0.1,1,7.1-3.2,7.1-3.2s-4.4,3.3-4.3,4.3c0.2,1,9.2-4.3,9.2-4.3c-0.5,1.4-0.4,2.9,0.3,4.3c0.2,0.2,0.4,0.4,0.6,0.5
			c0.3,0.1,0.5,0.1,0.8,0c-0.5-2.9,4.1-8.3,4.1-8.3c7.7-3.9,15-8.4,22.1-13.3c0.5-0.4,1.1-0.8,1.6-1.2
			C203,560.1,205.5,557.9,207.9,555.5z"/>
		<path class="st37" d="M216.5,518.4c0,0,12.7-22.8,25.8-23.9c0,0,6.4,12.6,19.2-0.3c0,0,16.3,3.8,26.3,17.5l-13.5,18.7l2.9,16.9
			l-46.2,3.2l1.5-17.1L216.5,518.4L216.5,518.4z"/>
		<path class="st33" d="M237.3,464.8c0,0,5.3-1,7.9-8.5c2.5-7.5,8.9-0.8,12.9-1.7c1-0.1,2-0.6,2.8-1.3c0.8-0.7,1.2-1.7,1.4-2.8
			c-1-2.3-2.8-4.2-5.1-5.4c-2.3-1.1-4.9-1.4-7.4-0.7c-2.6,0.6-5,1.8-7.1,3.6c-2,1.7-3.7,3.9-4.8,6.3
			C236.4,457.6,235.4,461.6,237.3,464.8L237.3,464.8z"/>
		<path class="st33" d="M262.2,450c-0.6,1.2-0.9,2.6-0.9,3.9c0,1.4,0.3,2.7,0.9,3.9c1,2.1,1.7,4.2,2.3,6.4
			C264.5,464.2,268.2,454.5,262.2,450z"/>
		<path class="st38" d="M516.4,199c0,0,10.5,4.6,3.5,15.6c-6.9,11,4.1,17.9,4.1,17.9s8.2,8,0.4,20.4"/>
		<path class="st39" d="M394.6,145.3l2.7,44.6"/>
		<path class="st39" d="M418.3,168.9l-44.6-2.6"/>
		<path class="st39" d="M409.4,157.1l-26.9,21"/>
		<path class="st39" d="M385,154.9l21.8,25.4"/>
		<path class="st38" d="M230.3,244.8l-21.3,28.4l30.8,19l21.9-28.4C261.7,263.8,230.3,244.8,230.3,244.8z"/>
		<path class="st38" d="M173.8,356.5l24.4-4.2l-7,24.4L173.8,356.5L173.8,356.5z"/>
		<path class="st40" d="M247.7,313.4l2,32.8"/>
		<path class="st40" d="M265.1,330.7l-32.8-1.9"/>
		<path class="st40" d="M258.6,322l-19.8,15.5"/>
		<path class="st40" d="M240.7,320.4l16.1,18.7"/>
		<path class="st39" d="M875.5,564.8l2.7,44.6"/>
		<path class="st39" d="M899.2,588.4l-44.6-2.6"/>
		<path class="st39" d="M890.4,576.5l-26.9,21"/>
		<path class="st39" d="M866,574.4l21.8,25.4"/>
		<path class="st38" d="M839.1,370.6c0,0,4.4-10.6,15.5-3.8c11.1,6.8,17.9-4.4,17.9-4.4s7.9-8.4,20.4-0.8"/>
		<path class="st38" d="M760.2,300.5l17.4-17.5l8.5,23.9C786,306.9,760.2,300.5,760.2,300.5z"/>
		<path class="st40" d="M829.2,238l2,32.8"/>
		<path class="st40" d="M846.6,255.4l-32.8-1.9"/>
		<path class="st40" d="M840.1,246.7l-19.8,15.5"/>
		<path class="st40" d="M822.2,245.1l16.1,18.7"/>
		<path class="st12" d="M680.2,221.6c0,0,33.6,25.3,33.5,36.8c-0.2,16.3-44.2-23.5-44.2-23.5L680.2,221.6L680.2,221.6z"/>
		<path class="st12" d="M760.9,216.5c0.6-1.4-6.3,2.6-6.3,2.6c6-6.5,6-6,6-6.5c0-1.2-8,5-8,5s4.8-4.7,4.4-5.8
			c-0.4-1.2-10.4,6.7-10.4,6.7c0.3-1.8,0-3.6-1-5.1c-0.2-0.2-0.5-0.4-0.8-0.5c-0.3-0.1-0.7,0-0.9,0.1c0.9,2.8-1.2,9-1.9,11
			c-36.5,24.7-37.8,35-37.8,35c9.6,15,45.1-28.5,48-32c2.9-2.1,5.7-4.5,8.3-7c0.6-1.1-4.8,1.9-4.8,1.9S760.1,218.3,760.9,216.5
			L760.9,216.5z"/>
		<path class="st41" d="M699.3,233.7l-12.6,18.9L660,221.7l10.4-13.4L699.3,233.7L699.3,233.7z"/>
		<path class="st41" d="M609.9,304c0,0-10.6-100,40-102.4c51.5-2.5,39,107.4,39.2,105.9L609.9,304L609.9,304z"/>
		<path class="st42" d="M609.9,304l-1.1,20.6l39.8,20.5l58.7-12.4l-7.7-27.1L609.9,304L609.9,304z"/>
		<path class="st43" d="M697.1,237h-90.6v72.1h90.6V237z"/>
		<path class="st41" d="M651.8,274.4c3.2,0,5.9-2.6,5.9-5.9c0-3.2-2.6-5.9-5.9-5.9s-5.9,2.6-5.9,5.9
			C646,271.7,648.6,274.4,651.8,274.4z"/>
		<path class="st12" d="M631.1,243.8c0,0-7.3,43.3-17.5,48.4c-10.2,5.1,3.3-51.9,3.3-51.9L631.1,243.8L631.1,243.8z"/>
		<path class="st12" d="M664.1,267.8l-8.3-5.3c-49.5,18.9-45,28.1-45,28.1C617.8,307.8,664.1,267.8,664.1,267.8L664.1,267.8z"/>
		<path class="st12" d="M654.1,263.8c0,0,4.7-7.5,4.3-11c0.3-0.1,0.6-0.1,1,0c0.3,0.1,0.6,0.3,0.7,0.6c0.7,1.7,0.7,3.5,0.1,5.2
			c0,0,11.3-5.9,11.4-4.7c0.1,1.2-5.4,4.9-5.4,4.9s9-4.7,8.8-3.5c-0.1,0.5,0,0-7.1,5.3c0,0,7.5-2.6,6.7-1.3
			c-1.1,1.5-6.3,4.4-6.3,4.4s5.9-1.9,5.1-1c-0.8,1-15.2,8.3-15.2,8.3l-2.7-2.3L654.1,263.8L654.1,263.8z"/>
		<path class="st41" d="M631.3,251.6l-22.5-2.7l16.6-35l16.6,3.2L631.3,251.6L631.3,251.6z"/>
		<path class="st44" d="M637.5,164.4c0,0-5.8,8,0.1,13.9l3.4-10.9L637.5,164.4L637.5,164.4z"/>
		<path class="st12" d="M638.6,168c0.8-2,2.1-3.6,3.8-4.8c1.7-1.2,3.8-1.8,5.9-1.9c6.3-0.1,10.2,3.3,12.3,9.9
			c0.6,2.2,0.9,4.5,0.8,6.8c0.6,0,1.2,0.3,1.6,0.7c0.4,0.4,0.6,1,0.6,1.6c0,0.6-0.3,1.2-0.7,1.6c-0.4,0.4-1,0.7-1.6,0.7l-0.5,0
			c-0.5,2.7-1.7,5.3-3.4,7.5l1.6,17.4c0,6.2-16.9,9.5-18.6,0l1.5-17.2c-1.7-2.2-2.9-4.8-3.4-7.5l-0.5,0c-0.4,0-0.8-0.1-1.2-0.4
			c-0.4-0.2-0.6-0.5-0.8-0.9c-0.2-0.4-0.3-0.8-0.3-1.2c0-0.4,0.1-0.8,0.3-1.2c0.2-0.3,0.4-0.5,0.7-0.7c0.3-0.2,0.6-0.3,1-0.3
			c-0.2-1.9-0.2-3.8,0-5.7C637.6,171,638,169.5,638.6,168L638.6,168z"/>
		<path class="st45" d="M637.7,181.6c0,0-1.6-1.3-0.3-2"/>
		<path class="st45" d="M661.1,181.5c0,0,1.6-1.3,0.3-1.9"/>
		<path class="st14" d="M657.3,190.3c-4.2,3.5-8.5,5.3-15.5,0.1c0,0,6.9,8.4,15.9,4.8L657.3,190.3z"/>
		<path class="st44" d="M646.4,157.3c-2,0.3-3.8,1-5.4,2.3c-1.6,1.2-2.7,2.9-3.4,4.7c-0.9,2.6-0.5,5.2,4.5,5c10-0.4,10.7-7,15.2-2.5
			c2.7,3.1,4.2,7.1,4.2,11.2c0,0,5.2-8.7-1.3-15.2C655.4,158.2,651.1,156.7,646.4,157.3L646.4,157.3z"/>
		<path class="st46" d="M641.5,336.5l-28.8,12.1l4.4,11.3l32.7-10.6L641.5,336.5L641.5,336.5z"/>
		<path class="st17" d="M621.1,345l-4.4,7.5h3.8l0.8,8.2h-5.9c0,0-17.3,8.9-22.4,3.8c-4.7-4.7,20.4-17.5,25-19.8
			c0.5-0.2,1-0.2,1.6-0.2C620.1,344.6,620.6,344.7,621.1,345L621.1,345z"/>
		<path class="st47" d="M609.2,356l0.7,4.7"/>
		<path class="st47" d="M612.6,355.7l0.7,4.7"/>
		<path class="st30" d="M636.7,335.8c0,0,61.4-37.8,81.4-33.4c20,4.4,12.9,27.6-54.7,45.4l-18.5,4.9L636.7,335.8z"/>
		<path class="st46" d="M661.7,330.9l28.8,12.1l-4.4,11.3l-32.7-10.6L661.7,330.9L661.7,330.9z"/>
		<path class="st17" d="M680.6,338.8l4.1,7.4h-3.8l-0.7,8.2h5.9c0,0,17.3,8.9,22.4,3.8c4.7-4.7-20.3-17.7-25-19.8
			C682.7,338,681,338.1,680.6,338.8z"/>
		<path class="st47" d="M688.8,349.7l-1.4,4.6"/>
		<path class="st47" d="M691.9,350.9l-1.4,4.6"/>
		<path class="st48" d="M665.6,330.3c0,0-61.4-37.8-81.4-33.4c-20,4.4-12.9,27.6,54.7,45.4l18.5,4.9L665.6,330.3z"/>
	</g>
</g>
<g>
	
		<image style="overflow:visible;opacity:0.5;" width="227" height="43" xlink:href="8382F3F0.png"  transform="matrix(1 0 0 1 424 381.64)">
	</image>
	<g>
		<g>
			<path class="st49" d="M439.6,416.4c-1.2,0-2.4-0.2-3.6-0.5c-1.1-0.4-2.2-0.9-3.1-1.6c-0.9-0.7-1.8-1.6-2.5-2.6
				c-0.7-1-1.3-2.2-1.7-3.6l5.2-2c0.4,1.5,1,2.7,2,3.6c0.9,1,2.2,1.4,3.7,1.4c0.6,0,1.1-0.1,1.6-0.2c0.5-0.1,1-0.4,1.4-0.7
				c0.4-0.3,0.8-0.6,1-1.1c0.2-0.4,0.4-0.9,0.4-1.5c0-0.5-0.1-1-0.3-1.5c-0.2-0.4-0.5-0.8-1-1.2c-0.4-0.4-1-0.7-1.7-1.1
				c-0.7-0.4-1.6-0.7-2.7-1.1l-1.8-0.7c-0.8-0.3-1.6-0.6-2.4-1.1c-0.8-0.5-1.5-1-2.2-1.7c-0.7-0.7-1.2-1.4-1.6-2.3
				c-0.4-0.9-0.6-1.9-0.6-3c0-1.1,0.2-2.2,0.7-3.2c0.4-1,1.1-1.9,1.9-2.6c0.8-0.7,1.8-1.3,3-1.7c1.2-0.4,2.4-0.6,3.8-0.6
				c1.5,0,2.7,0.2,3.8,0.6c1.1,0.4,2,0.9,2.7,1.5c0.7,0.6,1.3,1.3,1.8,2c0.5,0.7,0.8,1.4,1,2.1l-4.8,2c-0.3-0.8-0.8-1.5-1.5-2.2
				s-1.7-1-2.9-1c-1.2,0-2.2,0.3-3,0.8c-0.8,0.6-1.2,1.3-1.2,2.2c0,0.9,0.4,1.6,1.1,2.2c0.8,0.6,2,1.2,3.6,1.8l1.8,0.6
				c1.2,0.4,2.2,0.9,3.2,1.4c1,0.5,1.8,1.2,2.5,1.9c0.7,0.7,1.2,1.6,1.6,2.5s0.5,2,0.5,3.2c0,1.5-0.3,2.8-0.9,3.9
				c-0.6,1.1-1.4,2-2.3,2.7c-0.9,0.7-2,1.2-3.2,1.6C441.9,416.2,440.7,416.4,439.6,416.4z"/>
			<path class="st49" d="M454,386.6h5.5v29.1H454V386.6z"/>
			<path class="st49" d="M465.4,415.8v-29.1h10.2c1.4,0,2.7,0.2,3.9,0.7c1.2,0.4,2.3,1.1,3.2,1.9s1.6,1.8,2.1,2.9
				c0.5,1.1,0.8,2.4,0.8,3.7c0,1.4-0.3,2.6-0.8,3.8c-0.5,1.1-1.2,2.1-2.1,2.9s-1.9,1.4-3.2,1.9c-1.2,0.4-2.5,0.7-3.9,0.7h-4.8v10.7
				H465.4z M475.7,399.9c1.4,0,2.5-0.4,3.3-1.2c0.7-0.8,1.1-1.7,1.1-2.8c0-0.5-0.1-1-0.3-1.5c-0.2-0.5-0.4-0.9-0.8-1.3
				c-0.4-0.4-0.8-0.7-1.4-0.9s-1.2-0.3-1.9-0.3h-4.8v8H475.7z"/>
			<path class="st49" d="M495.1,386.6h6.3l10.9,29.1h-6.1l-2.4-7h-11.2l-2.4,7h-6.1L495.1,386.6z M502.1,403.8l-2.6-7.3l-1.1-3.5
				h-0.3l-1.1,3.5l-2.6,7.3H502.1z"/>
			<path class="st49" d="M515.7,386.6h5.5v12.5h0.3l10.7-12.5h6.6v0.3l-10.5,12l11.6,16.4v0.3h-6.7l-8.7-12.4l-3.3,3.9v8.5h-5.5
				V386.6z"/>
			<path class="st49" d="M542.9,386.6h11.4c1.2,0,2.4,0.2,3.5,0.6c1.1,0.4,2,0.9,2.8,1.6s1.4,1.5,1.9,2.4c0.5,0.9,0.7,1.9,0.7,3
				c0,1.5-0.4,2.8-1.1,3.9c-0.7,1-1.7,1.8-2.8,2.4v0.3c1.5,0.5,2.7,1.4,3.6,2.5s1.4,2.6,1.4,4.3c0,1.2-0.3,2.4-0.8,3.4
				c-0.5,1-1.2,1.8-2.1,2.5c-0.9,0.7-1.9,1.2-3,1.6c-1.2,0.4-2.4,0.6-3.7,0.6h-11.8V386.6z M553.9,398.5c1.3,0,2.3-0.3,2.9-1
				c0.7-0.7,1-1.5,1-2.5s-0.3-1.8-1-2.4c-0.7-0.7-1.6-1-2.8-1h-5.7v7H553.9z M554.5,410.7c1.4,0,2.4-0.3,3.2-1
				c0.7-0.7,1.1-1.6,1.1-2.7c0-1.1-0.4-2-1.1-2.7c-0.7-0.7-1.8-1.1-3.3-1.1h-5.9v7.5H554.5z"/>
			<path class="st49" d="M579.2,416.4c-1.7,0-3.3-0.3-4.7-0.8c-1.4-0.6-2.6-1.4-3.6-2.4c-1-1.1-1.7-2.3-2.3-3.8
				c-0.5-1.5-0.8-3.2-0.8-5.1v-17.5h5.5v17.9c0,1,0.1,1.9,0.4,2.7c0.2,0.8,0.6,1.5,1.1,2.1c0.5,0.6,1.1,1.1,1.8,1.4
				c0.7,0.3,1.6,0.5,2.5,0.5c1,0,1.8-0.2,2.6-0.5c0.7-0.3,1.3-0.8,1.8-1.4c0.5-0.6,0.9-1.3,1.1-2.1c0.2-0.8,0.4-1.7,0.4-2.7v-17.9
				h5.5v17.5c0,1.8-0.3,3.5-0.8,5c-0.5,1.5-1.3,2.8-2.3,3.9c-1,1.1-2.2,1.9-3.6,2.5S580.9,416.4,579.2,416.4z"/>
			<path class="st49" d="M601.9,415.8v-23.9h-8.1v-5.2h21.8v5.2h-8.1v23.9H601.9z"/>
			<path class="st49" d="M625.3,386.6h6.3l10.9,29.1h-6.1l-2.4-7h-11.2l-2.4,7h-6.1L625.3,386.6z M632.2,403.8l-2.6-7.3l-1.1-3.5
				h-0.3l-1.1,3.5l-2.6,7.3H632.2z"/>
		</g>
	</g>
</g>
</svg>
